<svg id="svg" version="1.1" xmlns="http://www.w3.org/2000/svg" xmlns:xlink="http://www.w3.org/1999/xlink" width="400" height="400" viewBox="0, 0, 400,400"><g id="svgg"><path id="path0" d="M221.075 64.226 C 208.408 65.288,197.768 67.997,189.600 72.238 C 167.962 83.476,161.228 100.031,161.208 142.038 C 161.200 157.255,161.154 158.318,160.469 158.938 C 159.816 159.529,158.158 159.600,145.091 159.600 L 130.445 159.600 129.823 160.489 C 129.061 161.576,128.864 204.625,129.614 206.026 C 130.012 206.770,130.604 206.800,144.725 206.800 C 157.380 206.800,159.546 206.887,160.311 207.423 L 161.200 208.045 161.200 279.174 C 161.200 341.775,161.272 350.361,161.797 350.798 C 162.685 351.535,216.495 351.551,217.382 350.815 C 217.935 350.356,218.001 342.886,218.005 279.851 C 218.008 241.103,218.116 209.007,218.245 208.528 C 218.640 207.054,219.225 207.006,239.195 206.800 L 258.590 206.600 259.071 205.596 C 259.539 204.619,260.084 201.898,260.793 197.000 C 260.984 195.680,261.509 192.440,261.960 189.800 C 262.411 187.160,262.980 183.740,263.224 182.200 C 263.468 180.660,263.826 178.590,264.019 177.600 C 265.997 167.463,266.917 160.823,266.426 160.231 C 265.960 159.669,263.319 159.600,242.400 159.600 C 222.313 159.600,218.828 159.515,218.415 159.018 C 217.629 158.071,218.071 126.011,218.904 123.553 C 220.856 117.793,224.270 114.162,229.800 111.964 C 232.175 111.020,232.373 111.009,249.188 110.881 C 260.403 110.796,266.350 110.607,266.688 110.327 C 267.627 109.548,267.415 65.119,266.469 64.262 C 265.514 63.399,231.269 63.371,221.075 64.226 " stroke="none" fill="#fbfbfb" fill-rule="evenodd"></path><path id="path1" d="M176.200 0.281 C 174.880 0.371,173.629 0.614,173.420 0.822 C 173.211 1.030,171.906 1.200,170.520 1.200 C 169.134 1.200,168.000 1.353,168.000 1.541 C 168.000 1.729,166.454 2.001,164.564 2.146 C 162.675 2.291,160.796 2.588,160.390 2.805 C 159.985 3.022,158.921 3.200,158.026 3.200 C 157.132 3.200,156.400 3.380,156.400 3.600 C 156.400 3.820,155.691 4.000,154.824 4.000 C 153.957 4.000,153.136 4.180,153.000 4.400 C 152.864 4.620,152.133 4.800,151.376 4.800 C 150.619 4.800,150.000 4.980,150.000 5.200 C 150.000 5.420,149.685 5.598,149.300 5.597 C 148.346 5.592,143.165 6.817,142.305 7.250 C 141.923 7.443,141.259 7.600,140.829 7.600 C 140.399 7.600,139.936 7.780,139.800 8.000 C 139.664 8.220,139.113 8.400,138.576 8.400 C 138.039 8.400,137.600 8.580,137.600 8.800 C 137.600 9.020,137.060 9.200,136.400 9.200 C 135.740 9.200,135.200 9.357,135.200 9.549 C 135.200 9.741,134.470 10.014,133.578 10.157 C 132.139 10.387,129.512 11.372,127.505 12.433 C 127.123 12.635,126.538 12.800,126.205 12.800 C 125.872 12.800,125.600 12.980,125.600 13.200 C 125.600 13.420,125.150 13.600,124.600 13.600 C 124.050 13.600,123.600 13.780,123.600 14.000 C 123.600 14.220,123.195 14.401,122.700 14.402 C 122.205 14.404,121.284 14.674,120.654 15.002 C 120.024 15.331,119.259 15.600,118.954 15.600 C 118.649 15.600,118.400 15.780,118.400 16.000 C 118.400 16.220,118.040 16.400,117.600 16.400 C 117.160 16.400,116.800 16.580,116.800 16.800 C 116.800 17.020,116.350 17.200,115.800 17.200 C 115.250 17.200,114.800 17.380,114.800 17.600 C 114.800 17.820,114.618 18.000,114.395 18.000 C 113.789 18.000,107.821 20.909,107.667 21.279 C 107.593 21.456,107.188 21.600,106.767 21.600 C 106.345 21.600,105.999 21.735,105.999 21.900 C 105.998 22.065,105.188 22.533,104.199 22.940 C 103.209 23.346,102.400 23.841,102.400 24.040 C 102.400 24.238,102.040 24.400,101.600 24.400 C 101.160 24.400,100.800 24.580,100.800 24.800 C 100.800 25.020,100.530 25.200,100.200 25.200 C 99.870 25.200,99.600 25.380,99.600 25.600 C 99.600 25.820,99.240 26.000,98.800 26.000 C 98.360 26.000,98.000 26.177,98.000 26.392 C 98.000 26.608,97.550 26.898,97.000 27.036 C 96.450 27.174,96.000 27.447,96.000 27.643 C 96.000 27.840,95.764 28.000,95.475 28.000 C 95.187 28.000,94.592 28.315,94.154 28.700 C 93.199 29.538,92.227 30.161,90.554 31.009 C 89.869 31.356,88.931 31.991,88.471 32.420 C 88.010 32.849,87.491 33.200,87.317 33.200 C 87.143 33.201,86.477 33.651,85.838 34.200 C 85.199 34.750,84.473 35.200,84.226 35.200 C 83.979 35.200,83.517 35.560,83.200 36.000 C 82.883 36.440,82.485 36.800,82.315 36.800 C 81.965 36.800,78.651 39.183,77.314 40.396 C 76.827 40.838,76.331 41.200,76.211 41.200 C 76.091 41.200,75.428 41.740,74.737 42.400 C 74.046 43.060,73.340 43.600,73.167 43.600 C 72.995 43.600,71.929 44.500,70.800 45.600 C 69.671 46.700,68.592 47.600,68.403 47.600 C 68.213 47.600,66.486 49.130,64.565 51.000 C 62.644 52.870,60.966 54.401,60.836 54.403 C 60.346 54.408,46.400 69.116,46.400 69.627 C 46.400 69.826,45.590 70.776,44.600 71.738 C 43.610 72.700,42.800 73.740,42.800 74.049 C 42.800 74.357,42.372 74.931,41.850 75.324 C 41.327 75.716,40.292 76.928,39.550 78.018 C 38.807 79.107,38.065 79.999,37.900 79.999 C 37.735 80.000,37.600 80.230,37.600 80.512 C 37.600 80.793,37.240 81.283,36.800 81.600 C 36.360 81.917,36.000 82.329,36.000 82.515 C 36.000 82.701,35.550 83.443,35.000 84.164 C 34.450 84.886,34.000 85.644,34.000 85.849 C 34.000 86.055,33.640 86.483,33.200 86.800 C 32.760 87.117,32.400 87.607,32.400 87.888 C 32.400 88.170,32.247 88.400,32.061 88.400 C 31.874 88.400,31.397 89.120,31.000 90.000 C 30.603 90.880,30.126 91.600,29.939 91.600 C 29.753 91.600,29.600 91.870,29.600 92.200 C 29.600 92.530,29.420 92.800,29.200 92.800 C 28.980 92.800,28.800 93.036,28.800 93.325 C 28.800 93.613,28.484 94.198,28.099 94.625 C 27.713 95.051,27.038 96.163,26.599 97.095 C 26.159 98.028,25.699 98.793,25.575 98.795 C 25.451 98.798,25.102 99.430,24.800 100.200 C 24.498 100.970,24.122 101.600,23.965 101.600 C 23.808 101.600,23.346 102.409,22.940 103.399 C 22.533 104.388,22.065 105.198,21.900 105.199 C 21.735 105.199,21.600 105.560,21.600 106.000 C 21.600 106.440,21.420 106.800,21.200 106.800 C 20.980 106.800,20.800 107.160,20.800 107.600 C 20.800 108.040,20.620 108.400,20.400 108.400 C 20.180 108.400,20.000 108.670,20.000 109.000 C 20.000 109.330,19.820 109.600,19.600 109.600 C 19.380 109.600,19.200 109.949,19.200 110.376 C 19.200 110.803,19.034 111.255,18.831 111.381 C 18.628 111.506,18.343 112.147,18.199 112.805 C 18.055 113.462,17.771 114.000,17.568 114.000 C 17.366 114.000,17.200 114.360,17.200 114.800 C 17.200 115.240,17.020 115.600,16.800 115.600 C 16.580 115.600,16.400 115.960,16.400 116.400 C 16.400 116.840,16.265 117.200,16.100 117.200 C 15.935 117.200,15.455 118.280,15.033 119.600 C 14.611 120.920,14.116 122.000,13.933 122.000 C 13.750 122.000,13.600 122.540,13.600 123.200 C 13.600 123.860,13.420 124.400,13.200 124.400 C 12.980 124.400,12.800 124.670,12.800 125.000 C 12.800 125.330,12.620 125.600,12.400 125.600 C 12.180 125.600,12.000 125.962,12.000 126.405 C 12.000 126.848,11.820 127.568,11.600 128.005 C 11.380 128.442,11.032 129.138,10.827 129.551 C 10.622 129.964,10.332 130.956,10.182 131.755 C 10.032 132.555,9.750 133.307,9.555 133.428 C 9.360 133.549,9.200 134.177,9.200 134.824 C 9.200 135.471,9.020 136.000,8.800 136.000 C 8.580 136.000,8.400 136.450,8.400 137.000 C 8.400 137.550,8.220 138.000,8.000 138.000 C 7.780 138.000,7.600 138.362,7.600 138.805 C 7.600 139.248,7.427 139.923,7.216 140.305 C 6.831 141.003,6.116 143.874,5.723 146.300 C 5.607 147.015,5.352 147.600,5.156 147.600 C 4.960 147.600,4.800 148.230,4.800 149.000 C 4.800 149.770,4.620 150.400,4.400 150.400 C 4.180 150.400,4.000 151.120,4.000 152.000 C 4.000 152.880,3.820 153.600,3.600 153.600 C 3.380 153.600,3.200 154.242,3.200 155.026 C 3.200 155.811,3.023 156.784,2.806 157.188 C 2.590 157.593,2.294 159.201,2.149 160.762 C 2.004 162.323,1.731 163.600,1.543 163.600 C 1.354 163.600,1.200 164.755,1.200 166.167 C 1.200 167.864,1.031 168.790,0.700 168.900 C 0.306 169.031,0.200 175.609,0.200 200.000 C 0.200 224.391,0.306 230.969,0.700 231.100 C 1.031 231.210,1.200 232.136,1.200 233.833 C 1.200 235.245,1.357 236.400,1.548 236.400 C 1.740 236.400,2.022 237.837,2.175 239.593 C 2.328 241.349,2.622 242.890,2.827 243.017 C 3.032 243.143,3.200 243.957,3.200 244.824 C 3.200 245.691,3.380 246.400,3.600 246.400 C 3.820 246.400,4.000 247.120,4.000 248.000 C 4.000 248.880,4.180 249.600,4.400 249.600 C 4.620 249.600,4.800 250.230,4.800 251.000 C 4.800 251.770,4.960 252.400,5.156 252.400 C 5.352 252.400,5.607 252.985,5.723 253.700 C 6.116 256.126,6.831 258.997,7.216 259.695 C 7.427 260.077,7.600 260.752,7.600 261.195 C 7.600 261.638,7.780 262.000,8.000 262.000 C 8.220 262.000,8.400 262.450,8.400 263.000 C 8.400 263.550,8.580 264.000,8.800 264.000 C 9.020 264.000,9.200 264.540,9.200 265.200 C 9.200 265.860,9.357 266.400,9.549 266.400 C 9.741 266.400,10.014 267.128,10.156 268.017 C 10.299 268.907,10.592 269.987,10.808 270.417 C 11.023 270.848,11.380 271.558,11.600 271.995 C 11.820 272.432,12.000 273.152,12.000 273.595 C 12.000 274.038,12.135 274.401,12.300 274.403 C 12.706 274.407,13.600 276.386,13.600 277.280 C 13.600 277.676,13.746 278.000,13.924 278.000 C 14.103 278.000,14.572 279.080,14.968 280.400 C 15.363 281.720,15.847 282.800,16.043 282.800 C 16.239 282.800,16.400 283.160,16.400 283.600 C 16.400 284.040,16.580 284.400,16.800 284.400 C 17.020 284.400,17.200 284.760,17.200 285.200 C 17.200 285.640,17.366 286.000,17.568 286.000 C 17.771 286.000,18.055 286.538,18.199 287.195 C 18.343 287.853,18.628 288.494,18.831 288.619 C 19.034 288.745,19.200 289.197,19.200 289.624 C 19.200 290.051,19.346 290.400,19.525 290.400 C 19.704 290.400,20.098 291.030,20.400 291.800 C 20.702 292.570,21.096 293.200,21.275 293.200 C 21.454 293.200,21.600 293.560,21.600 294.000 C 21.600 294.440,21.735 294.801,21.900 294.801 C 22.065 294.802,22.533 295.612,22.940 296.601 C 23.346 297.591,23.808 298.400,23.965 298.400 C 24.122 298.400,24.498 299.030,24.800 299.800 C 25.102 300.570,25.496 301.200,25.675 301.200 C 25.854 301.200,26.000 301.470,26.000 301.800 C 26.000 302.130,26.166 302.400,26.368 302.400 C 26.571 302.400,26.855 302.940,27.000 303.600 C 27.145 304.260,27.407 304.800,27.583 304.800 C 27.759 304.800,28.127 305.340,28.400 306.000 C 28.673 306.660,29.055 307.200,29.249 307.200 C 29.442 307.200,29.600 307.470,29.600 307.800 C 29.600 308.130,29.753 308.400,29.939 308.400 C 30.126 308.400,30.603 309.120,31.000 310.000 C 31.397 310.880,31.874 311.600,32.061 311.600 C 32.247 311.600,32.400 311.830,32.400 312.112 C 32.400 312.393,32.760 312.883,33.200 313.200 C 33.640 313.517,34.000 313.921,34.000 314.097 C 34.000 314.573,36.082 317.702,36.894 318.447 C 37.282 318.803,37.600 319.298,37.600 319.547 C 37.600 319.796,37.735 320.001,37.900 320.003 C 38.065 320.004,38.649 320.679,39.199 321.503 C 39.748 322.326,40.764 323.563,41.456 324.252 C 42.149 324.941,42.834 325.878,42.979 326.334 C 43.124 326.791,43.731 327.578,44.327 328.082 C 44.923 328.587,45.852 329.630,46.392 330.400 C 46.931 331.170,48.594 333.026,50.086 334.525 C 51.579 336.023,52.800 337.389,52.800 337.561 C 52.800 337.732,53.385 338.424,54.100 339.100 C 54.815 339.775,56.142 341.109,57.050 342.064 C 59.183 344.309,61.426 346.400,61.702 346.400 C 61.821 346.400,63.480 347.930,65.388 349.800 C 67.297 351.670,69.006 353.200,69.187 353.200 C 69.368 353.200,70.374 354.010,71.422 355.000 C 72.470 355.990,73.470 356.800,73.645 356.800 C 73.820 356.800,74.414 357.250,74.964 357.800 C 75.514 358.350,76.070 358.800,76.200 358.800 C 76.330 358.800,76.886 359.250,77.436 359.800 C 77.986 360.350,78.581 360.800,78.759 360.800 C 78.936 360.800,79.646 361.340,80.337 362.000 C 81.028 362.660,81.783 363.200,82.015 363.200 C 82.247 363.200,82.886 363.650,83.436 364.200 C 83.986 364.750,84.698 365.200,85.018 365.200 C 85.338 365.200,85.600 365.350,85.600 365.532 C 85.600 365.715,86.095 366.120,86.700 366.432 C 87.305 366.744,87.890 367.090,88.000 367.202 C 88.541 367.750,91.137 369.484,92.200 370.005 C 92.860 370.329,93.691 370.911,94.047 371.297 C 94.403 371.684,94.988 372.000,95.347 372.000 C 95.706 372.000,96.000 372.180,96.000 372.400 C 96.000 372.620,96.248 372.800,96.551 372.800 C 96.854 372.800,97.326 373.070,97.600 373.400 C 97.874 373.730,98.436 374.000,98.849 374.000 C 99.262 374.000,99.600 374.180,99.600 374.400 C 99.600 374.620,99.870 374.800,100.200 374.800 C 100.530 374.800,100.802 374.935,100.805 375.100 C 100.808 375.265,101.973 375.940,103.395 376.600 C 104.816 377.260,105.984 377.935,105.990 378.100 C 105.995 378.265,106.360 378.400,106.800 378.400 C 107.240 378.400,107.600 378.546,107.600 378.725 C 107.600 378.904,108.230 379.298,109.000 379.600 C 109.770 379.902,110.400 380.296,110.400 380.475 C 110.400 380.654,110.726 380.800,111.124 380.800 C 111.521 380.800,112.196 381.064,112.624 381.387 C 113.051 381.710,113.715 381.980,114.100 381.987 C 114.485 381.994,114.800 382.180,114.800 382.400 C 114.800 382.620,115.149 382.800,115.576 382.800 C 116.003 382.800,116.464 382.980,116.600 383.200 C 116.736 383.420,117.197 383.600,117.624 383.600 C 118.051 383.600,118.400 383.780,118.400 384.000 C 118.400 384.220,118.760 384.400,119.200 384.400 C 119.640 384.400,120.000 384.569,120.000 384.775 C 120.000 384.982,120.810 385.272,121.800 385.421 C 122.790 385.569,123.600 385.850,123.600 386.045 C 123.600 386.240,123.960 386.400,124.400 386.400 C 124.840 386.400,125.200 386.580,125.200 386.800 C 125.200 387.020,125.650 387.200,126.200 387.200 C 126.750 387.200,127.200 387.380,127.200 387.600 C 127.200 387.820,127.472 388.000,127.805 388.000 C 128.138 388.000,128.723 388.174,129.105 388.387 C 130.164 388.978,133.529 390.000,134.414 390.000 C 134.846 390.000,135.200 390.180,135.200 390.400 C 135.200 390.620,135.639 390.800,136.176 390.800 C 136.713 390.800,137.264 390.980,137.400 391.200 C 137.536 391.420,138.076 391.600,138.600 391.600 C 139.124 391.600,139.664 391.780,139.800 392.000 C 139.936 392.220,140.476 392.400,141.000 392.400 C 141.524 392.400,142.052 392.560,142.173 392.756 C 142.294 392.951,142.979 393.215,143.696 393.341 C 147.899 394.079,150.000 394.591,150.000 394.876 C 150.000 395.054,150.630 395.200,151.400 395.200 C 152.170 395.200,152.800 395.380,152.800 395.600 C 152.800 395.820,153.610 396.000,154.600 396.000 C 155.590 396.000,156.400 396.180,156.400 396.400 C 156.400 396.620,157.174 396.800,158.120 396.800 C 159.066 396.800,160.016 396.976,160.231 397.191 C 160.446 397.406,162.198 397.703,164.124 397.851 C 166.051 397.999,167.722 398.273,167.837 398.460 C 167.953 398.647,169.192 398.800,170.590 398.800 C 172.269 398.800,173.190 398.970,173.300 399.300 C 173.544 400.032,226.456 400.032,226.700 399.300 C 226.810 398.970,227.731 398.800,229.410 398.800 C 230.808 398.800,232.047 398.647,232.163 398.460 C 232.278 398.273,233.925 398.001,235.822 397.855 C 237.719 397.709,239.604 397.412,240.010 397.195 C 240.415 396.978,241.389 396.800,242.174 396.800 C 242.958 396.800,243.600 396.620,243.600 396.400 C 243.600 396.180,244.410 396.000,245.400 396.000 C 246.390 396.000,247.200 395.820,247.200 395.600 C 247.200 395.380,247.830 395.200,248.600 395.200 C 249.370 395.200,250.000 395.038,250.000 394.839 C 250.000 394.641,251.080 394.353,252.401 394.200 C 253.721 394.047,254.902 393.759,255.024 393.561 C 255.147 393.362,255.766 393.200,256.400 393.200 C 257.034 393.200,257.664 393.020,257.800 392.800 C 257.936 392.580,258.476 392.400,259.000 392.400 C 259.524 392.400,260.064 392.220,260.200 392.000 C 260.336 391.780,260.876 391.600,261.400 391.600 C 261.924 391.600,262.464 391.420,262.600 391.200 C 262.736 390.980,263.287 390.800,263.824 390.800 C 264.361 390.800,264.800 390.620,264.800 390.400 C 264.800 390.180,265.154 390.000,265.586 390.000 C 266.471 390.000,269.836 388.978,270.895 388.387 C 271.277 388.174,271.862 388.000,272.195 388.000 C 272.528 388.000,272.800 387.820,272.800 387.600 C 272.800 387.380,273.250 387.200,273.800 387.200 C 274.350 387.200,274.800 387.020,274.800 386.800 C 274.800 386.580,275.160 386.400,275.600 386.400 C 276.040 386.400,276.400 386.240,276.400 386.045 C 276.400 385.850,277.210 385.569,278.200 385.421 C 279.190 385.272,280.000 384.982,280.000 384.775 C 280.000 384.569,280.360 384.400,280.800 384.400 C 281.240 384.400,281.600 384.220,281.600 384.000 C 281.600 383.780,281.949 383.600,282.376 383.600 C 282.803 383.600,283.264 383.420,283.400 383.200 C 283.536 382.980,283.997 382.800,284.424 382.800 C 284.851 382.800,285.200 382.620,285.200 382.400 C 285.200 382.180,285.526 382.000,285.924 382.000 C 286.321 382.000,286.996 381.736,287.424 381.413 C 287.851 381.090,288.515 380.820,288.900 380.813 C 289.285 380.806,289.600 380.654,289.600 380.475 C 289.600 380.296,290.230 379.902,291.000 379.600 C 291.770 379.298,292.400 378.904,292.400 378.725 C 292.400 378.546,292.745 378.400,293.167 378.400 C 293.588 378.400,293.993 378.265,294.067 378.100 C 294.140 377.935,295.322 377.260,296.693 376.600 C 298.065 375.940,299.190 375.265,299.193 375.100 C 299.197 374.935,299.470 374.800,299.800 374.800 C 300.130 374.800,300.400 374.620,300.400 374.400 C 300.400 374.180,300.738 374.000,301.151 374.000 C 301.564 374.000,302.126 373.730,302.400 373.400 C 302.674 373.070,303.146 372.800,303.449 372.800 C 303.752 372.800,304.000 372.620,304.000 372.400 C 304.000 372.180,304.294 372.000,304.653 372.000 C 305.012 372.000,305.597 371.676,305.953 371.280 C 306.309 370.883,307.230 370.248,308.000 369.869 C 309.788 368.986,310.757 368.375,311.754 367.500 C 312.192 367.115,312.747 366.800,312.987 366.800 C 313.227 366.800,313.683 366.440,314.000 366.000 C 314.317 365.560,314.799 365.200,315.070 365.200 C 315.342 365.200,316.014 364.750,316.564 364.200 C 317.114 363.650,317.802 363.200,318.094 363.200 C 318.385 363.200,318.883 362.840,319.200 362.400 C 319.517 361.960,319.930 361.600,320.117 361.600 C 320.304 361.600,320.694 361.375,320.984 361.100 C 321.274 360.825,322.009 360.240,322.618 359.800 C 323.226 359.360,324.255 358.505,324.904 357.900 C 325.553 357.295,326.217 356.800,326.379 356.800 C 326.540 356.800,327.530 355.990,328.578 355.000 C 329.626 354.010,330.626 353.200,330.799 353.200 C 330.972 353.200,332.509 351.850,334.213 350.200 C 335.918 348.550,337.413 347.200,337.536 347.200 C 337.986 347.200,345.884 339.337,347.800 336.982 C 348.680 335.900,350.525 333.877,351.900 332.487 C 353.275 331.097,354.400 329.783,354.400 329.567 C 354.400 329.352,355.030 328.622,355.800 327.946 C 356.570 327.270,357.200 326.466,357.200 326.158 C 357.200 325.851,357.875 324.921,358.700 324.092 C 359.525 323.264,360.470 322.162,360.800 321.644 C 361.130 321.126,361.625 320.467,361.900 320.180 C 362.175 319.892,362.400 319.530,362.400 319.375 C 362.400 319.221,362.728 318.803,363.128 318.447 C 363.529 318.091,364.198 317.215,364.615 316.500 C 365.031 315.785,365.514 315.200,365.686 315.200 C 365.859 315.200,366.000 314.880,366.000 314.488 C 366.000 314.097,366.360 313.517,366.800 313.200 C 367.240 312.883,367.600 312.393,367.600 312.112 C 367.600 311.830,367.753 311.600,367.939 311.600 C 368.126 311.600,368.603 310.880,369.000 310.000 C 369.397 309.120,369.874 308.400,370.061 308.400 C 370.247 308.400,370.400 308.212,370.400 307.983 C 370.400 307.754,370.760 307.180,371.200 306.708 C 371.640 306.236,372.000 305.613,372.000 305.325 C 372.000 305.036,372.140 304.800,372.310 304.800 C 372.481 304.800,372.976 303.992,373.410 303.004 C 373.845 302.016,374.301 301.206,374.425 301.204 C 374.549 301.202,374.898 300.570,375.200 299.800 C 375.502 299.030,375.878 298.400,376.035 298.400 C 376.192 298.400,376.654 297.591,377.060 296.601 C 377.467 295.612,377.935 294.802,378.100 294.801 C 378.265 294.801,378.400 294.440,378.400 294.000 C 378.400 293.560,378.546 293.200,378.725 293.200 C 378.904 293.200,379.298 292.570,379.600 291.800 C 379.902 291.030,380.296 290.400,380.475 290.400 C 380.654 290.400,380.806 290.085,380.813 289.700 C 380.820 289.315,381.090 288.651,381.413 288.224 C 381.736 287.796,382.000 287.121,382.000 286.724 C 382.000 286.326,382.180 286.000,382.400 286.000 C 382.620 286.000,382.800 285.640,382.800 285.200 C 382.800 284.760,382.980 284.400,383.200 284.400 C 383.420 284.400,383.600 284.040,383.600 283.600 C 383.600 283.160,383.759 282.800,383.953 282.800 C 384.147 282.800,384.642 281.722,385.053 280.403 C 385.464 279.085,385.935 278.005,386.100 278.003 C 386.265 278.002,386.400 277.651,386.400 277.224 C 386.400 276.797,386.580 276.336,386.800 276.200 C 387.020 276.064,387.200 275.603,387.200 275.176 C 387.200 274.749,387.359 274.400,387.553 274.400 C 387.748 274.400,388.001 273.995,388.116 273.500 C 388.556 271.614,390.474 266.224,391.247 264.705 C 391.441 264.323,391.600 263.684,391.600 263.285 C 391.600 262.886,391.749 262.389,391.930 262.180 C 392.112 261.971,392.491 260.990,392.772 260.000 C 393.053 259.010,393.437 257.802,393.626 257.316 C 393.814 256.830,394.089 255.525,394.236 254.416 C 394.383 253.307,394.660 252.400,394.852 252.400 C 395.043 252.400,395.200 251.871,395.200 251.224 C 395.200 250.577,395.380 249.936,395.600 249.800 C 395.820 249.664,396.000 248.843,396.000 247.976 C 396.000 247.109,396.161 246.400,396.358 246.400 C 396.732 246.400,396.877 245.682,397.672 239.900 C 397.937 237.975,398.299 236.400,398.477 236.400 C 398.655 236.400,398.800 235.446,398.800 234.280 C 398.800 233.114,399.025 231.935,399.300 231.660 C 400.031 230.929,400.031 169.471,399.300 168.740 C 399.015 168.455,398.800 167.243,398.800 165.920 C 398.800 164.644,398.655 163.600,398.477 163.600 C 398.299 163.600,397.937 162.025,397.672 160.100 C 396.877 154.318,396.732 153.600,396.358 153.600 C 396.161 153.600,396.000 152.891,396.000 152.024 C 396.000 151.157,395.820 150.336,395.600 150.200 C 395.380 150.064,395.200 149.423,395.200 148.776 C 395.200 148.129,395.044 147.600,394.854 147.600 C 394.664 147.600,394.393 146.753,394.251 145.719 C 393.983 143.766,393.357 141.504,392.751 140.305 C 392.558 139.923,392.400 139.248,392.400 138.805 C 392.400 138.362,392.220 138.000,392.000 138.000 C 391.780 138.000,391.600 137.550,391.600 137.000 C 391.600 136.450,391.420 136.000,391.200 136.000 C 390.980 136.000,390.800 135.370,390.800 134.600 C 390.800 133.830,390.620 133.200,390.400 133.200 C 390.180 133.200,390.000 132.936,390.000 132.614 C 390.000 131.890,388.914 128.449,388.387 127.505 C 388.174 127.123,388.000 126.538,388.000 126.205 C 388.000 125.872,387.820 125.600,387.600 125.600 C 387.380 125.600,387.200 125.251,387.200 124.824 C 387.200 124.397,387.020 123.936,386.800 123.800 C 386.580 123.664,386.400 123.203,386.400 122.776 C 386.400 122.349,386.254 122.000,386.076 122.000 C 385.897 122.000,385.428 120.920,385.032 119.600 C 384.637 118.280,384.153 117.200,383.957 117.200 C 383.761 117.200,383.600 116.840,383.600 116.400 C 383.600 115.960,383.420 115.600,383.200 115.600 C 382.980 115.600,382.800 115.240,382.800 114.800 C 382.800 114.360,382.620 114.000,382.400 114.000 C 382.180 114.000,382.000 113.674,382.000 113.276 C 382.000 112.879,381.736 112.204,381.413 111.776 C 381.090 111.349,380.820 110.685,380.813 110.300 C 380.806 109.915,380.620 109.600,380.400 109.600 C 380.180 109.600,380.000 109.330,380.000 109.000 C 380.000 108.670,379.820 108.400,379.600 108.400 C 379.380 108.400,379.200 108.040,379.200 107.600 C 379.200 107.160,379.020 106.800,378.800 106.800 C 378.580 106.800,378.400 106.440,378.400 106.000 C 378.400 105.560,378.265 105.199,378.100 105.199 C 377.935 105.198,377.467 104.388,377.060 103.399 C 376.654 102.409,376.192 101.600,376.035 101.600 C 375.878 101.600,375.502 100.970,375.200 100.200 C 374.898 99.430,374.549 98.798,374.425 98.796 C 374.301 98.794,373.845 97.984,373.410 96.996 C 372.976 96.008,372.503 95.200,372.359 95.200 C 372.215 95.200,371.873 94.660,371.600 94.000 C 371.327 93.340,370.945 92.800,370.751 92.800 C 370.558 92.800,370.400 92.530,370.400 92.200 C 370.400 91.870,370.247 91.600,370.061 91.600 C 369.874 91.600,369.397 90.880,369.000 90.000 C 368.603 89.120,368.126 88.400,367.939 88.400 C 367.753 88.400,367.600 88.170,367.600 87.888 C 367.600 87.607,367.240 87.117,366.800 86.800 C 366.360 86.483,366.000 86.079,366.000 85.903 C 366.000 85.427,363.918 82.298,363.106 81.553 C 362.718 81.197,362.400 80.779,362.400 80.625 C 362.400 80.470,362.175 80.106,361.900 79.816 C 361.625 79.526,361.040 78.774,360.600 78.144 C 360.160 77.515,359.234 76.437,358.542 75.748 C 357.850 75.059,357.166 74.122,357.021 73.666 C 356.876 73.209,356.269 72.422,355.673 71.918 C 355.077 71.413,354.148 70.370,353.608 69.600 C 353.069 68.830,351.406 66.974,349.914 65.475 C 348.421 63.977,347.200 62.611,347.200 62.439 C 347.200 62.268,346.615 61.576,345.900 60.900 C 345.185 60.225,343.858 58.891,342.950 57.936 C 340.791 55.664,338.573 53.600,338.289 53.600 C 338.165 53.600,336.606 52.160,334.824 50.400 C 333.043 48.640,331.410 47.200,331.195 47.200 C 330.980 47.200,329.885 46.300,328.761 45.200 C 327.638 44.100,326.565 43.200,326.378 43.200 C 326.190 43.200,325.586 42.750,325.036 42.200 C 324.486 41.650,323.930 41.200,323.800 41.200 C 323.670 41.200,323.114 40.750,322.564 40.200 C 322.014 39.650,321.374 39.200,321.142 39.200 C 320.911 39.200,320.217 38.660,319.600 38.000 C 318.983 37.340,318.273 36.800,318.021 36.800 C 317.770 36.800,317.114 36.350,316.564 35.800 C 316.014 35.250,315.317 34.800,315.015 34.800 C 314.713 34.800,314.407 34.659,314.333 34.488 C 314.129 34.009,309.120 30.609,307.679 29.971 C 306.975 29.659,306.400 29.299,306.400 29.169 C 306.400 29.039,305.410 28.415,304.200 27.782 C 302.990 27.149,302.000 26.489,302.000 26.316 C 302.000 26.142,301.640 26.000,301.200 26.000 C 300.760 26.000,300.400 25.820,300.400 25.600 C 300.400 25.380,300.130 25.200,299.800 25.200 C 299.470 25.200,299.200 25.020,299.200 24.800 C 299.200 24.580,298.840 24.400,298.400 24.400 C 297.960 24.400,297.600 24.238,297.600 24.040 C 297.600 23.841,296.791 23.346,295.801 22.940 C 294.812 22.533,294.002 22.065,294.001 21.900 C 294.001 21.735,293.640 21.600,293.200 21.600 C 292.760 21.600,292.400 21.454,292.400 21.275 C 292.400 21.096,291.770 20.702,291.000 20.400 C 290.230 20.098,289.600 19.704,289.600 19.525 C 289.600 19.346,289.274 19.200,288.876 19.200 C 288.479 19.200,287.804 18.936,287.376 18.613 C 286.949 18.290,286.285 18.020,285.900 18.013 C 285.515 18.006,285.200 17.820,285.200 17.600 C 285.200 17.380,284.750 17.200,284.200 17.200 C 283.650 17.200,283.200 17.020,283.200 16.800 C 283.200 16.580,282.840 16.400,282.400 16.400 C 281.960 16.400,281.600 16.220,281.600 16.000 C 281.600 15.780,281.351 15.600,281.046 15.600 C 280.741 15.600,279.976 15.331,279.346 15.002 C 278.716 14.674,277.795 14.404,277.300 14.402 C 276.805 14.401,276.400 14.220,276.400 14.000 C 276.400 13.780,276.051 13.600,275.624 13.600 C 275.197 13.600,274.736 13.420,274.600 13.200 C 274.464 12.980,274.003 12.800,273.576 12.800 C 273.149 12.800,272.800 12.620,272.800 12.400 C 272.800 12.180,272.474 12.000,272.075 12.000 C 271.676 12.000,270.616 11.645,269.719 11.212 C 268.821 10.778,267.347 10.305,266.444 10.161 C 265.540 10.016,264.800 9.741,264.800 9.549 C 264.800 9.357,264.361 9.200,263.824 9.200 C 263.287 9.200,262.736 9.020,262.600 8.800 C 262.464 8.580,261.924 8.400,261.400 8.400 C 260.876 8.400,260.336 8.220,260.200 8.000 C 260.064 7.780,259.601 7.600,259.171 7.600 C 258.741 7.600,258.077 7.443,257.695 7.250 C 256.835 6.817,251.654 5.592,250.700 5.597 C 250.315 5.598,250.000 5.420,250.000 5.200 C 250.000 4.980,249.381 4.800,248.624 4.800 C 247.867 4.800,247.136 4.620,247.000 4.400 C 246.864 4.180,246.043 4.000,245.176 4.000 C 244.309 4.000,243.600 3.820,243.600 3.600 C 243.600 3.380,242.868 3.200,241.974 3.200 C 241.079 3.200,240.015 3.022,239.610 2.805 C 239.204 2.588,237.325 2.291,235.436 2.146 C 233.546 2.001,232.000 1.729,232.000 1.541 C 232.000 1.353,230.866 1.200,229.480 1.200 C 227.997 1.200,226.754 0.994,226.460 0.700 C 225.973 0.213,182.556 -0.149,176.200 0.281 M267.303 63.543 C 267.989 64.228,268.110 109.125,267.431 110.489 L 266.977 111.400 249.988 111.627 C 240.645 111.752,232.460 111.993,231.800 112.164 C 226.296 113.586,221.509 117.958,220.044 122.900 C 219.800 123.725,219.420 124.998,219.200 125.728 C 218.962 126.518,218.800 133.500,218.800 142.928 L 218.800 158.800 242.311 158.800 C 270.286 158.800,268.609 158.416,267.206 164.494 C 266.990 165.432,266.355 168.900,265.796 172.200 C 265.236 175.500,264.604 179.145,264.389 180.300 C 263.456 185.333,263.181 186.961,262.211 193.200 C 260.164 206.359,260.114 206.544,258.336 207.507 C 257.613 207.899,253.111 208.000,238.551 207.952 C 228.184 207.918,219.499 208.015,219.251 208.169 C 218.919 208.374,218.800 227.188,218.800 279.379 C 218.800 347.455,218.771 350.348,218.070 351.213 L 217.340 352.115 189.625 352.098 C 164.507 352.083,161.848 352.020,161.255 351.426 C 160.655 350.826,160.583 344.813,160.400 279.619 C 160.290 240.485,160.074 208.340,159.920 208.186 C 159.765 208.032,152.998 207.882,144.882 207.853 C 133.021 207.810,129.994 207.692,129.462 207.251 C 128.860 206.752,128.800 204.596,128.800 183.374 L 128.800 160.045 129.689 159.423 C 130.454 158.887,132.618 158.800,145.246 158.800 C 158.253 158.800,159.942 158.728,160.157 158.167 C 160.291 157.819,160.410 151.024,160.422 143.067 C 160.459 118.482,161.810 106.658,165.594 97.800 C 169.543 88.557,174.500 81.632,180.200 77.394 C 181.080 76.740,181.890 76.091,182.000 75.953 C 183.062 74.619,193.716 68.997,196.078 68.524 C 196.704 68.399,197.314 68.140,197.432 67.948 C 197.550 67.757,197.999 67.600,198.429 67.600 C 198.859 67.600,199.523 67.430,199.905 67.223 C 200.287 67.016,202.130 66.482,204.000 66.035 C 213.582 63.750,216.747 63.495,239.200 63.203 C 264.398 62.876,266.663 62.903,267.303 63.543 " stroke="none" fill="#3364a4" fill-rule="evenodd"></path><path id="path2" d="M246.841 63.500 C 264.629 63.601,265.926 63.655,266.538 64.332 C 267.126 64.981,267.204 67.361,267.300 87.428 L 267.407 109.800 267.503 87.300 C 267.598 65.267,267.583 64.783,266.800 64.000 C 266.020 63.220,265.533 63.202,246.900 63.296 L 227.800 63.392 246.841 63.500 M223.091 63.889 C 223.801 63.977,225.061 63.979,225.891 63.892 C 226.721 63.805,226.140 63.733,224.600 63.731 C 223.060 63.729,222.381 63.800,223.091 63.889 M218.307 64.290 C 219.026 64.379,220.106 64.377,220.707 64.286 C 221.308 64.195,220.720 64.122,219.400 64.124 C 218.080 64.126,217.588 64.201,218.307 64.290 M214.900 64.676 C 215.285 64.776,215.915 64.776,216.300 64.676 C 216.685 64.575,216.370 64.493,215.600 64.493 C 214.830 64.493,214.515 64.575,214.900 64.676 M210.400 65.200 L 209.400 65.520 210.400 65.513 C 210.950 65.509,211.940 65.368,212.600 65.200 L 213.800 64.895 212.600 64.887 C 211.940 64.883,210.950 65.024,210.400 65.200 M206.400 66.000 L 205.400 66.320 206.400 66.320 C 206.950 66.320,207.850 66.176,208.400 66.000 L 209.400 65.680 208.400 65.680 C 207.850 65.680,206.950 65.824,206.400 66.000 M202.800 66.800 L 201.800 67.120 202.800 67.132 C 203.350 67.138,204.160 66.989,204.600 66.800 L 205.400 66.456 204.600 66.468 C 204.160 66.474,203.350 66.624,202.800 66.800 M189.388 71.933 C 182.613 75.530,175.729 81.219,172.851 85.600 C 172.230 86.544,172.490 86.349,173.649 85.000 C 178.489 79.367,182.965 75.780,189.492 72.307 C 191.861 71.046,193.620 70.014,193.400 70.015 C 193.180 70.015,191.375 70.878,189.388 71.933 M171.046 88.200 C 170.691 88.750,170.109 89.695,169.753 90.300 L 169.105 91.400 169.910 90.426 C 170.860 89.276,172.121 87.200,171.869 87.200 C 171.771 87.200,171.401 87.650,171.046 88.200 M167.472 94.619 C 166.532 96.589,166.664 96.924,167.647 95.062 C 168.093 94.216,168.387 93.454,168.301 93.367 C 168.214 93.281,167.841 93.844,167.472 94.619 M165.659 99.028 C 165.186 100.262,164.809 101.480,164.820 101.736 C 164.830 101.991,165.283 101.047,165.824 99.638 C 166.366 98.229,166.744 97.011,166.664 96.930 C 166.583 96.850,166.131 97.794,165.659 99.028 M164.229 103.429 C 164.081 104.015,164.038 104.572,164.132 104.666 C 164.227 104.760,164.424 104.358,164.571 103.771 C 164.719 103.185,164.762 102.628,164.668 102.534 C 164.573 102.440,164.376 102.842,164.229 103.429 M163.378 106.578 C 163.227 107.381,163.194 108.127,163.304 108.237 C 163.414 108.347,163.627 107.781,163.778 106.978 C 163.928 106.175,163.962 105.428,163.852 105.318 C 163.742 105.208,163.528 105.775,163.378 106.578 M162.793 109.033 C 162.789 109.235,162.522 111.110,162.200 113.200 C 161.878 115.290,161.640 117.720,161.671 118.600 C 161.727 120.181,161.730 120.183,161.872 118.800 C 161.950 118.030,162.295 115.539,162.638 113.264 C 162.980 110.989,163.157 109.024,163.030 108.897 C 162.904 108.770,162.797 108.832,162.793 109.033 M233.200 111.068 C 227.052 112.045,219.200 118.654,219.200 122.851 C 219.200 123.113,219.776 122.174,220.481 120.764 C 221.955 117.815,224.724 114.863,227.206 113.597 C 231.531 111.390,231.036 111.444,249.200 111.198 L 266.200 110.968 250.200 110.939 C 241.400 110.922,233.750 110.980,233.200 111.068 M161.320 122.400 C 161.320 123.610,161.395 124.105,161.487 123.500 C 161.578 122.895,161.578 121.905,161.487 121.300 C 161.395 120.695,161.320 121.190,161.320 122.400 M218.656 124.484 C 218.521 124.988,218.428 125.850,218.449 126.400 C 218.472 126.989,218.631 126.671,218.836 125.625 C 219.203 123.752,219.073 122.927,218.656 124.484 M160.798 142.588 L 160.600 158.577 159.600 159.082 C 158.976 159.398,158.840 159.590,159.238 159.594 C 161.173 159.612,161.217 159.211,161.102 142.363 L 160.995 126.600 160.798 142.588 M218.095 143.420 C 218.000 158.671,218.072 159.600,219.356 159.600 C 219.575 159.600,219.449 159.375,219.078 159.100 C 218.469 158.649,218.393 157.119,218.297 143.400 L 218.190 128.200 218.095 143.420 M131.700 159.487 C 132.305 159.578,133.295 159.578,133.900 159.487 C 134.505 159.395,134.010 159.320,132.800 159.320 C 131.590 159.320,131.095 159.395,131.700 159.487 M145.900 159.489 C 146.615 159.578,147.785 159.578,148.500 159.489 C 149.215 159.401,148.630 159.328,147.200 159.328 C 145.770 159.328,145.185 159.401,145.900 159.489 M260.112 159.495 C 261.164 159.577,262.784 159.576,263.712 159.492 C 264.640 159.408,263.780 159.341,261.800 159.342 C 259.820 159.343,259.060 159.412,260.112 159.495 M266.405 160.206 C 266.806 160.690,266.809 161.422,266.420 163.838 C 266.151 165.503,266.011 166.945,266.109 167.043 C 266.207 167.140,266.505 165.868,266.772 164.215 C 267.260 161.190,267.105 159.600,266.324 159.600 C 266.064 159.600,266.095 159.832,266.405 160.206 M265.418 169.418 C 265.265 170.439,265.222 171.355,265.322 171.455 C 265.422 171.555,265.629 170.802,265.782 169.782 C 265.935 168.761,265.978 167.845,265.878 167.745 C 265.778 167.645,265.571 168.398,265.418 169.418 M264.600 174.000 C 264.445 175.128,264.402 176.136,264.506 176.239 C 264.609 176.342,264.816 175.500,264.967 174.367 C 265.117 173.234,265.159 172.226,265.061 172.128 C 264.963 172.029,264.755 172.872,264.600 174.000 M263.782 178.582 C 263.629 179.602,263.594 180.527,263.704 180.637 C 263.814 180.747,264.029 180.002,264.182 178.982 C 264.335 177.961,264.370 177.037,264.260 176.927 C 264.150 176.817,263.935 177.561,263.782 178.582 M263.053 182.836 C 262.914 183.531,262.821 184.572,262.847 185.150 C 262.872 185.728,263.055 185.227,263.252 184.039 C 263.637 181.721,263.473 180.734,263.053 182.836 M261.854 190.354 C 261.700 191.318,261.658 192.191,261.761 192.294 C 262.030 192.563,262.515 189.745,262.307 189.122 C 262.212 188.836,262.008 189.390,261.854 190.354 M260.982 195.382 C 260.829 196.402,260.794 197.327,260.904 197.437 C 261.014 197.547,261.229 196.802,261.382 195.782 C 261.535 194.761,261.570 193.837,261.460 193.727 C 261.350 193.617,261.135 194.361,260.982 195.382 M260.269 199.956 C 260.121 200.695,260.020 201.683,260.044 202.150 C 260.068 202.618,260.247 202.190,260.442 201.200 C 260.637 200.210,260.738 199.223,260.667 199.006 C 260.596 198.790,260.417 199.217,260.269 199.956 M259.448 204.462 C 258.956 206.922,260.001 206.800,239.370 206.800 C 220.794 206.800,218.400 206.947,218.400 208.087 C 218.400 208.284,218.800 208.165,219.289 207.823 C 220.063 207.280,222.634 207.200,239.227 207.200 C 257.123 207.200,258.316 207.156,258.933 206.474 C 259.559 205.782,260.321 203.200,259.900 203.200 C 259.790 203.200,259.586 203.768,259.448 204.462 M129.212 205.820 C 129.175 207.115,130.131 207.200,144.780 207.206 C 153.294 207.210,159.651 207.371,160.000 207.592 C 160.528 207.926,160.624 216.455,160.802 279.085 L 161.004 350.200 161.102 279.123 L 161.200 208.045 160.311 207.423 C 159.546 206.887,157.380 206.800,144.731 206.800 C 131.161 206.800,130.009 206.747,129.632 206.100 C 129.408 205.715,129.219 205.589,129.212 205.820 M218.196 279.400 C 218.196 318.340,218.243 334.211,218.300 314.668 C 218.357 295.126,218.357 263.266,218.300 243.868 C 218.243 224.471,218.196 240.460,218.196 279.400 M161.659 350.967 C 162.877 352.302,218.000 352.064,218.000 350.724 C 218.000 350.467,217.758 350.503,217.382 350.815 C 216.465 351.576,162.711 351.532,161.697 350.769 C 161.045 350.278,161.043 350.291,161.659 350.967 " stroke="none" fill="#94accc" fill-rule="evenodd"></path><path id="path3" d="M225.500 63.482 C 225.995 63.578,226.805 63.578,227.300 63.482 C 227.795 63.387,227.390 63.309,226.400 63.309 C 225.410 63.309,225.005 63.387,225.500 63.482 M234.500 111.476 C 234.885 111.576,235.515 111.576,235.900 111.476 C 236.285 111.375,235.970 111.293,235.200 111.293 C 234.430 111.293,234.115 111.375,234.500 111.476 M261.500 111.489 C 262.215 111.578,263.385 111.578,264.100 111.489 C 264.815 111.401,264.230 111.328,262.800 111.328 C 261.370 111.328,260.785 111.401,261.500 111.489 M223.375 116.500 L 222.200 117.800 223.500 116.625 C 224.215 115.979,224.800 115.394,224.800 115.325 C 224.800 115.016,224.470 115.288,223.375 116.500 M160.920 124.800 C 160.920 126.010,160.995 126.505,161.087 125.900 C 161.178 125.295,161.178 124.305,161.087 123.700 C 160.995 123.095,160.920 123.590,160.920 124.800 M218.534 130.000 C 218.534 131.650,218.605 132.325,218.691 131.500 C 218.778 130.675,218.778 129.325,218.691 128.500 C 218.605 127.675,218.534 128.350,218.534 130.000 M137.317 159.497 C 138.811 159.574,141.151 159.574,142.517 159.496 C 143.882 159.418,142.660 159.355,139.800 159.355 C 136.940 159.356,135.822 159.420,137.317 159.497 M151.916 159.497 C 153.299 159.575,155.459 159.574,156.716 159.495 C 157.972 159.416,156.840 159.352,154.200 159.353 C 151.560 159.353,150.532 159.418,151.916 159.497 M229.072 159.500 C 234.392 159.563,243.212 159.563,248.672 159.500 C 254.133 159.437,249.780 159.385,239.000 159.385 C 228.220 159.385,223.753 159.437,229.072 159.500 M128.984 160.500 C 128.878 160.775,128.839 171.170,128.896 183.600 L 129.000 206.200 129.200 183.100 C 129.310 170.395,129.349 160.000,129.287 160.000 C 129.226 160.000,129.089 160.225,128.984 160.500 M137.325 207.499 C 141.024 207.566,146.964 207.565,150.525 207.499 C 154.086 207.433,151.060 207.379,143.800 207.379 C 136.540 207.379,133.626 207.433,137.325 207.499 M232.127 207.500 C 236.927 207.564,244.667 207.563,249.327 207.499 C 253.987 207.436,250.060 207.383,240.600 207.383 C 231.140 207.383,227.327 207.436,232.127 207.500 M218.592 313.200 C 218.592 333.110,218.640 341.255,218.700 331.300 C 218.759 321.345,218.759 305.055,218.700 295.100 C 218.640 285.145,218.592 293.290,218.592 313.200 M179.500 351.900 C 184.615 351.963,192.985 351.963,198.100 351.900 C 203.215 351.836,199.030 351.785,188.800 351.785 C 178.570 351.785,174.385 351.836,179.500 351.900 " stroke="none" fill="#7e99c6" fill-rule="evenodd"></path><path id="path4" d="M261.111 63.093 C 262.051 63.178,263.491 63.177,264.311 63.091 C 265.130 63.005,264.360 62.936,262.600 62.937 C 260.840 62.939,260.170 63.009,261.111 63.093 M218.600 63.605 C 217.928 63.779,218.984 63.821,221.000 63.702 C 222.980 63.585,224.675 63.424,224.767 63.344 C 225.081 63.072,219.800 63.295,218.600 63.605 M212.200 64.400 L 211.000 64.705 212.200 64.705 C 212.860 64.705,213.940 64.568,214.600 64.400 L 215.800 64.095 214.600 64.095 C 213.940 64.095,212.860 64.232,212.200 64.400 M267.768 72.600 C 267.768 77.000,267.826 78.855,267.898 76.721 C 267.970 74.588,267.970 70.988,267.899 68.721 C 267.827 66.455,267.768 68.200,267.768 72.600 M205.800 65.619 C 205.242 65.871,205.485 65.907,206.600 65.738 C 207.480 65.604,208.275 65.428,208.367 65.347 C 208.710 65.044,206.568 65.271,205.800 65.619 M202.600 66.400 C 201.581 66.838,202.632 66.838,204.000 66.400 C 204.804 66.143,204.843 66.077,204.200 66.068 C 203.760 66.062,203.040 66.211,202.600 66.400 M194.200 69.178 C 193.320 69.595,192.780 69.936,193.000 69.938 C 193.546 69.942,196.702 68.464,196.200 68.440 C 195.980 68.430,195.080 68.762,194.200 69.178 M178.028 79.210 C 176.851 80.316,175.968 81.301,176.067 81.400 C 176.166 81.499,177.220 80.595,178.410 79.390 C 181.120 76.646,180.880 76.533,178.028 79.210 M174.026 83.322 L 173.051 84.600 174.326 83.425 C 175.651 82.203,175.803 81.985,175.300 82.022 C 175.135 82.034,174.562 82.619,174.026 83.322 M167.580 93.239 C 167.120 94.140,166.813 94.946,166.897 95.030 C 166.981 95.114,167.441 94.376,167.919 93.391 C 169.009 91.147,168.715 91.015,167.580 93.239 M267.767 102.000 C 267.767 106.290,267.826 108.045,267.898 105.900 C 267.970 103.755,267.970 100.245,267.898 98.100 C 267.826 95.955,267.767 97.710,267.767 102.000 M163.873 102.553 C 163.723 102.945,163.611 103.566,163.625 103.933 C 163.642 104.375,163.781 104.274,164.037 103.634 C 164.249 103.103,164.361 102.482,164.285 102.254 C 164.209 102.027,164.024 102.161,163.873 102.553 M162.622 107.822 C 162.472 108.625,162.428 109.362,162.526 109.460 C 162.624 109.557,162.827 108.981,162.978 108.178 C 163.128 107.375,163.172 106.638,163.074 106.540 C 162.976 106.443,162.773 107.019,162.622 107.822 M266.200 111.014 C 265.199 111.473,265.141 111.567,265.851 111.582 C 266.319 111.592,266.926 111.330,267.200 111.000 C 267.783 110.297,267.766 110.297,266.200 111.014 M161.888 111.733 C 161.730 112.136,161.611 112.856,161.625 113.333 C 161.649 114.156,161.671 114.150,162.040 113.225 C 162.254 112.689,162.373 111.969,162.303 111.625 C 162.199 111.111,162.125 111.130,161.888 111.733 M242.300 111.499 C 245.655 111.566,251.145 111.566,254.500 111.499 C 257.855 111.432,255.110 111.378,248.400 111.378 C 241.690 111.378,238.945 111.432,242.300 111.499 M231.600 112.000 C 231.067 112.345,231.067 112.388,231.600 112.388 C 231.930 112.388,232.470 112.213,232.800 112.000 C 233.333 111.655,233.333 111.612,232.800 111.612 C 232.470 111.612,231.930 111.787,231.600 112.000 M225.400 115.035 L 224.200 116.066 225.500 115.206 C 226.215 114.733,226.800 114.268,226.800 114.173 C 226.800 113.873,226.631 113.978,225.400 115.035 M160.995 118.911 C 160.843 120.327,160.792 121.826,160.880 122.242 C 160.969 122.659,161.177 121.584,161.342 119.854 C 161.507 118.124,161.558 116.625,161.456 116.523 C 161.354 116.421,161.146 117.495,160.995 118.911 M222.093 118.300 C 221.057 119.796,220.721 120.400,220.923 120.400 C 221.017 120.400,221.570 119.680,222.153 118.800 C 223.336 117.012,223.284 116.579,222.093 118.300 M219.029 125.029 C 218.881 125.615,218.851 126.184,218.961 126.294 C 219.071 126.404,219.281 126.015,219.429 125.429 C 219.576 124.842,219.606 124.273,219.496 124.163 C 219.386 124.053,219.176 124.442,219.029 125.029 M160.495 142.067 C 160.443 150.574,160.296 157.864,160.170 158.267 C 159.962 158.929,159.982 158.934,160.375 158.327 C 160.674 157.864,160.775 152.807,160.700 142.127 L 160.590 126.600 160.495 142.067 M218.578 145.400 C 218.579 152.440,218.633 155.264,218.699 151.675 C 218.766 148.086,218.766 142.326,218.699 138.875 C 218.633 135.424,218.578 138.360,218.578 145.400 M137.726 159.100 C 141.866 159.165,148.526 159.165,152.526 159.099 C 156.527 159.034,153.140 158.981,145.000 158.981 C 136.860 158.981,133.587 159.034,137.726 159.100 M242.800 159.202 C 255.890 159.319,266.651 159.457,266.713 159.508 C 266.775 159.559,266.989 160.005,267.188 160.500 C 267.450 161.154,267.556 161.215,267.575 160.723 C 267.646 158.809,267.432 158.794,242.411 158.894 L 219.000 158.987 242.800 159.202 M267.022 163.022 C 266.872 163.825,266.838 164.572,266.948 164.682 C 267.058 164.792,267.272 164.225,267.422 163.422 C 267.573 162.619,267.606 161.873,267.496 161.763 C 267.386 161.653,267.173 162.219,267.022 163.022 M266.200 168.000 C 266.046 168.910,266.004 169.738,266.107 169.840 C 266.210 169.943,266.413 169.277,266.560 168.360 C 266.707 167.443,266.748 166.615,266.653 166.520 C 266.558 166.424,266.354 167.090,266.200 168.000 M265.400 172.400 C 265.246 173.310,265.204 174.138,265.307 174.240 C 265.410 174.343,265.613 173.677,265.760 172.760 C 265.907 171.843,265.948 171.015,265.853 170.920 C 265.758 170.824,265.554 171.490,265.400 172.400 M264.449 178.200 C 264.416 178.640,264.296 179.450,264.183 180.000 L 263.977 181.000 264.406 180.019 C 264.642 179.479,264.761 178.669,264.672 178.219 C 264.513 177.421,264.507 177.421,264.449 178.200 M263.649 182.600 C 263.616 183.040,263.496 183.850,263.383 184.400 L 263.177 185.400 263.606 184.419 C 263.842 183.879,263.961 183.069,263.872 182.619 C 263.713 181.821,263.707 181.821,263.649 182.600 M262.600 188.800 C 262.446 189.710,262.404 190.538,262.507 190.640 C 262.610 190.743,262.813 190.077,262.960 189.160 C 263.107 188.243,263.148 187.415,263.053 187.320 C 262.958 187.224,262.754 187.890,262.600 188.800 M261.869 193.156 C 261.721 193.895,261.620 194.883,261.644 195.350 C 261.668 195.817,261.847 195.390,262.042 194.400 C 262.237 193.410,262.338 192.423,262.267 192.206 C 262.196 191.990,262.017 192.417,261.869 193.156 M260.655 200.655 C 260.513 201.686,260.474 202.608,260.569 202.702 C 260.663 202.796,260.865 202.039,261.018 201.018 C 261.171 199.998,261.210 199.076,261.104 198.971 C 260.998 198.865,260.796 199.623,260.655 200.655 M128.886 206.400 C 129.316 207.856,130.651 207.990,143.800 207.907 L 156.600 207.826 143.267 207.613 C 130.539 207.410,129.907 207.364,129.321 206.600 C 128.964 206.134,128.782 206.050,128.886 206.400 M258.400 207.046 C 257.571 207.518,254.172 207.604,238.475 207.552 C 224.237 207.505,219.433 207.608,219.075 207.968 C 218.707 208.339,218.759 208.387,219.305 208.179 C 219.693 208.031,228.641 207.886,239.190 207.855 C 256.880 207.804,258.425 207.746,259.071 207.100 C 259.890 206.282,259.764 206.272,258.400 207.046 M158.176 207.616 C 159.043 207.838,159.853 208.120,159.976 208.243 C 160.099 208.366,160.291 240.357,160.402 279.333 L 160.604 350.200 160.702 279.576 C 160.810 201.934,161.010 207.722,158.199 207.397 L 156.600 207.212 158.176 207.616 M218.591 243.200 C 218.591 262.010,218.640 269.705,218.700 260.300 C 218.760 250.895,218.760 235.505,218.700 226.100 C 218.640 216.695,218.591 224.390,218.591 243.200 M218.432 349.700 C 218.414 350.085,218.040 350.760,217.600 351.200 C 217.160 351.640,216.976 352.000,217.191 352.000 C 217.777 352.000,218.906 350.101,218.669 349.513 C 218.540 349.191,218.451 349.261,218.432 349.700 M165.111 352.293 C 166.051 352.378,167.491 352.377,168.311 352.291 C 169.130 352.205,168.360 352.136,166.600 352.137 C 164.840 352.139,164.170 352.209,165.111 352.293 M210.100 352.294 C 211.145 352.376,212.855 352.376,213.900 352.294 C 214.945 352.212,214.090 352.144,212.000 352.144 C 209.910 352.144,209.055 352.212,210.100 352.294 " stroke="none" fill="#5c84b4" fill-rule="evenodd"></path></g></svg>