<svg id="svg" version="1.1" xmlns="http://www.w3.org/2000/svg" xmlns:xlink="http://www.w3.org/1999/xlink" width="400" height="400" viewBox="0, 0, 400,400"><g id="svgg"><path id="path0" d="M85.200 65.222 C 76.002 66.932,69.941 70.311,65.209 76.365 C 62.562 79.753,59.624 85.640,59.103 88.600 C 56.187 105.180,61.925 117.181,76.000 123.940 C 81.609 126.633,95.034 127.812,102.015 126.224 C 125.787 120.817,133.882 87.799,115.105 72.831 C 112.145 70.472,104.637 66.648,101.800 66.055 C 96.630 64.975,88.678 64.576,85.200 65.222 M261.400 148.604 C 255.924 149.239,253.392 149.745,249.468 150.991 C 237.237 154.873,226.489 162.956,217.403 175.105 C 215.017 178.294,215.012 178.270,214.894 164.667 L 214.788 152.400 184.993 152.400 L 155.198 152.400 155.299 242.900 L 155.400 333.400 185.100 333.503 L 214.800 333.605 214.800 284.771 C 214.800 230.940,214.896 228.156,217.073 218.800 C 218.828 211.260,226.548 202.397,235.189 198.003 C 242.428 194.321,254.291 194.303,262.039 197.962 C 269.112 201.302,276.188 211.551,277.670 220.600 C 278.816 227.602,278.903 231.399,279.057 281.503 L 279.217 333.605 309.109 333.503 L 339.000 333.400 339.000 278.200 C 339.000 222.271,338.986 221.647,337.561 211.800 C 333.417 183.175,321.367 164.260,301.200 154.726 C 290.728 149.776,273.780 147.169,261.400 148.604 M62.000 243.000 L 62.000 333.600 91.800 333.600 L 121.600 333.600 121.600 243.000 L 121.600 152.400 91.800 152.400 L 62.000 152.400 62.000 243.000 " stroke="none" fill="#fbfbfb" fill-rule="evenodd"></path><path id="path1" d="M23.700 0.288 C 22.985 0.377,22.400 0.575,22.400 0.728 C 22.400 0.998,21.643 1.355,18.800 2.426 C 15.953 3.497,8.125 9.910,7.478 11.700 C 7.339 12.085,7.039 12.400,6.813 12.400 C 6.586 12.400,6.400 12.670,6.400 13.000 C 6.400 13.330,6.220 13.600,6.000 13.600 C 5.780 13.600,5.600 13.960,5.600 14.400 C 5.600 14.840,5.429 15.200,5.220 15.200 C 4.352 15.200,1.216 22.935,1.206 25.100 C 1.203 25.815,1.020 26.400,0.800 26.400 C 0.535 26.400,0.400 47.985,0.400 90.356 L 0.400 154.312 2.300 155.210 C 3.345 155.704,5.370 156.644,6.800 157.300 C 8.230 157.955,10.888 159.191,12.708 160.046 C 14.527 160.901,16.097 161.600,16.196 161.600 C 16.295 161.600,17.327 162.030,18.488 162.555 C 22.467 164.355,24.202 165.111,26.400 166.003 C 27.610 166.494,29.167 167.144,29.859 167.447 C 30.552 167.751,33.702 169.004,36.859 170.233 C 40.017 171.461,43.140 172.704,43.800 172.995 C 44.460 173.285,46.350 174.004,48.000 174.593 C 51.216 175.741,52.592 176.286,53.695 176.847 C 54.077 177.041,54.741 177.200,55.171 177.200 C 55.601 177.200,56.064 177.380,56.200 177.600 C 56.336 177.820,56.752 178.009,57.124 178.019 C 57.496 178.030,58.430 178.346,59.200 178.722 L 60.600 179.405 60.800 184.803 C 60.910 187.771,61.028 181.689,61.062 171.287 C 61.108 157.085,61.245 152.228,61.611 151.787 C 62.030 151.282,65.690 151.200,87.779 151.200 L 113.461 151.200 114.234 150.300 C 114.660 149.805,115.350 148.725,115.767 147.900 C 116.185 147.075,116.678 146.400,116.863 146.400 C 117.048 146.400,117.200 146.152,117.200 145.849 C 117.200 145.546,117.489 145.058,117.842 144.765 C 118.195 144.473,118.652 143.865,118.859 143.416 C 119.590 141.826,120.312 140.736,121.350 139.653 C 121.927 139.050,122.400 138.364,122.400 138.129 C 122.400 137.894,123.165 136.994,124.100 136.129 C 125.035 135.264,126.338 133.846,126.995 132.978 C 128.326 131.222,134.311 125.202,134.732 125.197 C 134.879 125.195,135.810 124.393,136.800 123.415 C 137.790 122.437,138.791 121.628,139.025 121.618 C 139.259 121.608,139.968 121.060,140.600 120.400 C 141.232 119.740,141.955 119.200,142.205 119.200 C 142.456 119.200,143.083 118.750,143.600 118.200 C 144.117 117.650,144.756 117.200,145.021 117.200 C 145.285 117.200,145.742 116.911,146.035 116.558 C 146.327 116.205,146.935 115.756,147.384 115.559 C 148.299 115.159,149.696 114.315,150.000 113.979 C 150.110 113.858,150.850 113.456,151.645 113.087 C 152.440 112.717,153.317 112.141,153.594 111.807 C 153.871 111.473,154.255 111.200,154.446 111.200 C 155.093 111.200,158.000 109.814,158.000 109.506 C 158.000 109.338,158.329 109.200,158.732 109.200 C 159.135 109.200,160.350 108.751,161.432 108.202 C 162.514 107.653,163.805 107.203,164.300 107.202 C 164.795 107.201,165.201 107.065,165.203 106.900 C 165.207 106.499,167.181 105.600,168.056 105.600 C 168.439 105.600,168.864 105.420,169.000 105.200 C 169.136 104.980,169.687 104.800,170.224 104.800 C 170.761 104.800,171.200 104.620,171.200 104.400 C 171.200 104.180,171.819 104.000,172.576 104.000 C 173.333 104.000,174.056 103.833,174.183 103.628 C 174.309 103.423,175.402 103.132,176.612 102.981 C 177.821 102.830,178.909 102.548,179.029 102.353 C 179.149 102.159,180.047 102.000,181.024 102.000 C 182.001 102.000,182.800 101.820,182.800 101.600 C 182.800 101.380,183.790 101.200,185.000 101.200 C 186.210 101.200,187.200 101.020,187.200 100.800 C 187.200 100.563,188.659 100.400,190.776 100.400 C 192.743 100.400,194.464 100.220,194.600 100.000 C 194.932 99.463,207.868 99.463,208.200 100.000 C 208.336 100.220,209.866 100.400,211.600 100.400 C 213.334 100.400,214.864 100.580,215.000 100.800 C 215.136 101.020,216.126 101.200,217.200 101.200 C 218.274 101.200,219.264 101.380,219.400 101.600 C 219.536 101.820,220.346 102.000,221.200 102.000 C 222.054 102.000,222.851 102.159,222.971 102.353 C 223.091 102.547,224.359 102.831,225.790 102.984 C 227.221 103.137,228.494 103.429,228.619 103.631 C 228.745 103.834,229.276 104.000,229.800 104.000 C 230.324 104.000,230.864 104.180,231.000 104.400 C 231.136 104.620,231.867 104.800,232.624 104.800 C 233.381 104.800,234.001 104.935,234.003 105.100 C 234.007 105.501,235.981 106.400,236.856 106.400 C 237.239 106.400,237.664 106.580,237.800 106.800 C 237.936 107.020,238.342 107.200,238.703 107.200 C 239.493 107.200,253.089 113.897,253.435 114.456 C 253.568 114.673,254.065 115.018,254.539 115.224 C 255.807 115.775,256.904 116.509,257.641 117.300 C 258.000 117.685,258.505 118.000,258.764 118.000 C 259.293 118.000,259.682 118.291,262.380 120.700 C 263.426 121.635,264.449 122.400,264.652 122.400 C 264.855 122.400,266.272 123.660,267.800 125.200 C 269.328 126.740,270.777 128.000,271.020 128.000 C 271.549 128.000,273.200 129.693,273.200 130.236 C 273.200 130.447,274.550 131.961,276.200 133.600 C 277.850 135.239,279.200 136.778,279.200 137.020 C 279.200 137.262,279.650 137.883,280.200 138.400 C 280.750 138.917,281.200 139.558,281.200 139.825 C 281.200 140.092,281.738 140.735,282.396 141.255 C 283.054 141.775,283.594 142.496,283.596 142.857 C 283.598 143.219,283.855 143.612,284.166 143.732 C 284.731 143.948,285.200 144.696,286.781 147.900 C 287.555 149.468,287.742 149.600,289.186 149.600 C 290.048 149.600,290.864 149.780,291.000 150.000 C 291.136 150.220,291.867 150.400,292.624 150.400 C 293.381 150.400,294.000 150.580,294.000 150.800 C 294.000 151.020,294.450 151.200,295.000 151.200 C 295.550 151.200,296.000 151.380,296.000 151.600 C 296.000 151.820,296.355 152.000,296.788 152.000 C 297.221 152.000,298.217 152.360,299.000 152.800 C 299.783 153.240,300.699 153.600,301.035 153.600 C 301.630 153.600,305.200 155.435,305.600 155.946 C 305.710 156.086,306.340 156.467,307.000 156.791 C 311.736 159.118,325.200 171.959,325.200 174.149 C 325.200 174.282,325.508 174.751,325.885 175.191 C 326.490 175.898,328.188 178.909,330.399 183.200 C 331.512 185.360,332.400 187.474,332.400 187.966 C 332.400 188.211,332.580 188.768,332.800 189.205 C 333.020 189.642,333.380 190.358,333.600 190.795 C 333.820 191.232,334.000 191.941,334.000 192.371 C 334.000 192.801,334.180 193.264,334.400 193.400 C 334.620 193.536,334.800 194.057,334.800 194.557 C 334.800 195.057,334.929 195.595,335.086 195.753 C 335.514 196.181,336.319 199.494,336.631 202.109 C 336.782 203.379,337.062 204.514,337.253 204.633 C 337.444 204.751,337.600 205.726,337.600 206.800 C 337.600 207.874,337.780 208.864,338.000 209.000 C 338.263 209.162,338.400 205.537,338.400 198.424 C 338.400 191.204,338.262 187.600,337.984 187.600 C 337.720 187.600,337.611 186.336,337.684 184.125 L 337.800 180.650 339.600 179.991 C 341.910 179.144,342.811 178.804,343.800 178.404 C 344.240 178.226,345.230 177.864,346.000 177.600 C 346.770 177.336,347.760 176.973,348.200 176.795 C 348.640 176.617,350.800 175.808,353.000 174.998 C 355.200 174.188,357.763 173.182,358.696 172.763 C 359.628 172.343,360.511 172.000,360.657 172.000 C 360.891 172.000,369.024 168.765,372.200 167.408 C 372.860 167.126,374.390 166.494,375.600 166.003 C 377.798 165.111,379.533 164.355,383.512 162.555 C 384.673 162.030,385.702 161.600,385.797 161.600 C 385.892 161.600,387.642 160.812,389.685 159.850 C 391.728 158.887,394.887 157.414,396.703 156.576 L 400.007 155.053 399.867 87.826 C 399.724 19.641,399.723 19.477,399.133 19.841 C 398.950 19.955,398.800 19.587,398.800 19.024 C 398.800 18.461,398.620 18.000,398.400 18.000 C 398.180 18.000,398.000 17.640,398.000 17.200 C 398.000 16.760,397.809 16.400,397.576 16.400 C 397.343 16.400,397.264 16.220,397.400 16.000 C 397.536 15.780,397.501 15.600,397.321 15.600 C 397.142 15.600,396.773 15.105,396.502 14.500 C 396.231 13.895,395.467 12.825,394.804 12.122 C 394.142 11.419,393.600 10.709,393.600 10.545 C 393.600 10.118,390.410 7.200,389.943 7.200 C 389.728 7.200,389.664 7.020,389.800 6.800 C 389.936 6.580,389.767 6.400,389.424 6.400 C 389.081 6.400,388.800 6.220,388.800 6.000 C 388.800 5.780,388.519 5.600,388.176 5.600 C 387.833 5.600,387.664 5.420,387.800 5.200 C 387.936 4.980,387.782 4.800,387.457 4.800 C 387.132 4.800,386.807 4.665,386.733 4.500 C 386.523 4.026,382.562 2.000,381.846 2.000 C 381.491 2.000,381.200 1.820,381.200 1.600 C 381.200 1.380,380.786 1.200,380.280 1.200 C 379.774 1.200,379.135 0.975,378.860 0.700 C 378.384 0.224,27.462 -0.183,23.700 0.288 M96.917 64.609 C 102.129 65.167,103.272 65.418,105.295 66.447 C 105.677 66.641,106.262 66.800,106.595 66.800 C 106.928 66.800,107.200 66.980,107.200 67.200 C 107.200 67.420,107.560 67.600,108.000 67.600 C 108.440 67.600,108.800 67.760,108.800 67.957 C 108.800 68.153,109.278 68.433,109.861 68.580 C 112.908 69.344,121.964 77.496,121.993 79.500 C 121.997 79.775,122.136 80.000,122.302 80.000 C 122.469 80.000,122.851 80.585,123.152 81.300 C 123.453 82.015,123.947 83.123,124.250 83.761 C 124.552 84.400,124.800 85.245,124.800 85.638 C 124.800 86.031,124.980 86.464,125.200 86.600 C 125.420 86.736,125.600 87.546,125.600 88.400 C 125.600 89.254,125.780 90.064,126.000 90.200 C 126.232 90.343,126.400 92.530,126.400 95.400 C 126.400 98.270,126.232 100.457,126.000 100.600 C 125.780 100.736,125.600 101.649,125.600 102.629 C 125.600 103.609,125.440 104.723,125.244 105.105 C 125.049 105.487,124.572 106.520,124.185 107.400 C 123.045 109.995,122.010 111.994,121.596 112.400 C 121.484 112.510,121.034 113.302,120.596 114.159 C 119.867 115.587,113.223 122.800,112.637 122.800 C 112.498 122.800,111.671 123.250,110.800 123.800 C 109.929 124.350,108.942 124.800,108.608 124.800 C 108.274 124.800,108.000 124.980,108.000 125.200 C 108.000 125.420,107.651 125.600,107.224 125.600 C 106.797 125.600,106.336 125.780,106.200 126.000 C 106.064 126.220,105.423 126.400,104.776 126.400 C 104.129 126.400,103.600 126.580,103.600 126.800 C 103.600 127.020,102.826 127.200,101.880 127.200 C 100.934 127.200,99.964 127.396,99.725 127.635 C 98.716 128.644,81.750 127.501,79.000 126.239 C 78.120 125.835,76.410 125.046,75.200 124.486 C 70.712 122.407,62.400 115.431,62.400 113.743 C 62.400 113.444,62.252 113.200,62.070 113.200 C 61.650 113.200,59.600 108.787,59.600 107.882 C 59.600 107.507,59.420 107.200,59.200 107.200 C 58.980 107.200,58.800 106.671,58.800 106.024 C 58.800 105.377,58.647 104.752,58.459 104.636 C 57.209 103.864,57.212 92.456,58.464 87.800 C 58.888 86.223,62.302 78.789,62.780 78.400 C 62.916 78.290,63.705 77.264,64.533 76.119 C 67.030 72.671,73.249 67.600,74.981 67.600 C 75.321 67.600,75.600 67.420,75.600 67.200 C 75.600 66.980,75.949 66.800,76.376 66.800 C 76.803 66.800,77.251 66.641,77.370 66.448 C 77.627 66.033,78.509 65.801,83.600 64.810 C 88.381 63.880,89.896 63.857,96.917 64.609 M60.972 219.000 C 60.972 224.060,61.029 226.075,61.099 223.477 C 61.169 220.880,61.168 216.740,61.098 214.277 C 61.028 211.815,60.971 213.940,60.972 219.000 M339.709 223.600 C 339.709 224.590,339.787 224.995,339.882 224.500 C 339.978 224.005,339.978 223.195,339.882 222.700 C 339.787 222.205,339.709 222.610,339.709 223.600 M60.986 252.000 C 60.986 263.330,61.037 267.965,61.100 262.300 C 61.162 256.635,61.162 247.365,61.100 241.700 C 61.037 236.035,60.986 240.670,60.986 252.000 M122.000 296.010 L 122.000 312.420 123.188 312.658 C 123.858 312.792,124.481 313.224,124.615 313.648 C 124.746 314.061,125.162 314.400,125.539 314.400 C 125.915 314.400,126.483 314.760,126.800 315.200 C 127.117 315.640,127.530 316.000,127.717 316.000 C 127.904 316.000,128.327 316.270,128.657 316.600 C 128.987 316.930,129.604 317.200,130.029 317.200 C 130.453 317.200,130.800 317.380,130.800 317.600 C 130.800 317.820,131.148 318.000,131.573 318.000 C 131.998 318.000,132.460 318.360,132.600 318.800 C 132.740 319.240,133.202 319.600,133.627 319.600 C 134.052 319.600,134.400 319.760,134.400 319.955 C 134.400 320.151,135.030 320.429,135.800 320.574 C 136.570 320.718,137.200 321.008,137.200 321.218 C 137.200 321.428,137.560 321.600,138.000 321.600 C 138.440 321.600,138.800 321.780,138.800 322.000 C 138.800 322.220,139.160 322.400,139.600 322.400 C 140.040 322.400,140.400 322.580,140.400 322.800 C 140.400 323.020,140.670 323.200,141.000 323.200 C 141.330 323.200,141.600 323.380,141.600 323.600 C 141.600 323.820,141.960 324.000,142.400 324.000 C 142.840 324.000,143.200 324.160,143.200 324.355 C 143.200 324.551,143.830 324.829,144.600 324.974 C 145.370 325.118,146.000 325.408,146.000 325.618 C 146.000 325.828,146.540 326.000,147.200 326.000 C 147.860 326.000,148.400 326.180,148.400 326.400 C 148.400 326.620,148.670 326.800,149.000 326.800 C 149.330 326.800,149.600 326.980,149.600 327.200 C 149.600 327.420,149.960 327.600,150.400 327.600 C 150.840 327.600,151.200 327.780,151.200 328.000 C 151.200 328.220,151.650 328.400,152.200 328.400 C 152.750 328.400,153.200 328.580,153.200 328.800 C 153.200 329.020,153.560 329.200,154.000 329.200 C 154.784 329.200,154.800 328.933,154.800 315.771 C 154.800 301.980,154.716 301.200,153.229 301.200 C 152.993 301.200,152.800 301.036,152.800 300.835 C 152.800 300.634,152.080 300.349,151.200 300.200 C 150.320 300.051,149.600 299.766,149.600 299.565 C 149.600 299.364,149.330 299.200,149.000 299.200 C 148.670 299.200,148.400 299.020,148.400 298.800 C 148.400 298.580,148.040 298.400,147.600 298.400 C 147.160 298.400,146.800 298.220,146.800 298.000 C 146.800 297.780,146.459 297.600,146.043 297.600 C 145.626 297.600,145.182 297.330,145.055 297.000 C 144.929 296.670,144.459 296.400,144.013 296.400 C 143.566 296.400,143.200 296.220,143.200 296.000 C 143.200 295.780,142.880 295.600,142.488 295.600 C 142.097 295.600,141.517 295.240,141.200 294.800 C 140.883 294.360,140.433 294.000,140.200 294.000 C 139.967 294.000,139.517 293.640,139.200 293.200 C 138.883 292.760,138.297 292.400,137.899 292.400 C 137.501 292.400,137.071 292.130,136.945 291.800 C 136.818 291.470,136.446 291.200,136.118 291.200 C 135.789 291.200,135.017 290.660,134.400 290.000 C 133.783 289.340,133.086 288.800,132.850 288.800 C 132.614 288.800,131.611 287.990,130.621 287.000 C 129.631 286.010,128.719 285.200,128.594 285.200 C 128.176 285.200,126.045 283.206,123.686 280.607 C 122.022 278.775,122.000 278.979,122.000 296.010 M339.701 281.000 C 339.705 281.880,339.787 282.193,339.883 281.695 C 339.979 281.198,339.975 280.478,339.875 280.095 C 339.775 279.713,339.696 280.120,339.701 281.000 M276.800 283.200 C 276.483 283.640,275.998 284.000,275.722 284.000 C 275.447 284.000,274.411 284.810,273.421 285.800 C 272.431 286.790,271.519 287.600,271.394 287.600 C 271.139 287.600,270.426 288.166,268.999 289.500 C 268.470 289.995,267.914 290.400,267.765 290.400 C 267.616 290.400,267.203 290.731,266.847 291.136 C 266.491 291.541,265.705 291.994,265.100 292.144 C 264.495 292.293,264.000 292.592,264.000 292.808 C 264.000 293.023,263.770 293.200,263.488 293.200 C 263.207 293.200,262.717 293.560,262.400 294.000 C 262.083 294.440,261.543 294.800,261.200 294.800 C 260.857 294.800,260.322 295.153,260.011 295.585 C 259.699 296.017,258.895 296.491,258.223 296.639 C 257.551 296.787,256.709 297.243,256.353 297.654 C 255.997 298.064,255.502 298.400,255.253 298.400 C 255.004 298.400,254.800 298.580,254.800 298.800 C 254.800 299.020,254.440 299.200,254.000 299.200 C 253.560 299.200,253.200 299.360,253.200 299.555 C 253.200 299.751,252.570 300.029,251.800 300.174 C 251.030 300.318,250.400 300.608,250.400 300.818 C 250.400 301.028,250.040 301.200,249.600 301.200 C 249.160 301.200,248.800 301.380,248.800 301.600 C 248.800 301.820,248.530 302.000,248.200 302.000 C 247.870 302.000,247.600 302.180,247.600 302.400 C 247.600 302.620,247.060 302.800,246.400 302.800 C 245.740 302.800,245.200 302.980,245.200 303.200 C 245.200 303.420,244.840 303.600,244.400 303.600 C 243.960 303.600,243.600 303.760,243.600 303.955 C 243.600 304.150,242.790 304.431,241.800 304.579 C 240.810 304.728,240.000 305.018,240.000 305.225 C 240.000 305.431,239.550 305.600,239.000 305.600 C 238.450 305.600,238.000 305.780,238.000 306.000 C 238.000 306.220,237.460 306.400,236.800 306.400 C 236.140 306.400,235.600 306.580,235.600 306.800 C 235.600 307.020,235.150 307.200,234.600 307.200 C 234.050 307.200,233.600 307.380,233.600 307.600 C 233.600 307.820,232.985 308.000,232.233 308.000 C 231.482 308.000,230.807 308.175,230.733 308.389 C 230.660 308.603,229.295 308.899,227.700 309.046 C 226.105 309.194,224.800 309.469,224.800 309.657 C 224.800 309.846,223.990 310.000,223.000 310.000 C 222.010 310.000,221.200 310.180,221.200 310.400 C 221.200 310.620,220.287 310.800,219.171 310.800 C 215.929 310.800,216.028 310.434,215.906 322.865 L 215.800 333.800 194.700 333.904 C 181.095 333.970,173.600 334.148,173.600 334.404 C 173.600 334.622,174.500 334.800,175.600 334.800 C 176.700 334.800,177.600 334.980,177.600 335.200 C 177.600 335.420,178.500 335.600,179.600 335.600 C 180.700 335.600,181.600 335.780,181.600 336.000 C 181.600 336.231,182.856 336.400,184.567 336.400 C 186.254 336.400,187.593 336.578,187.671 336.814 C 187.863 337.388,214.937 337.389,215.128 336.815 C 215.207 336.578,216.540 336.400,218.233 336.400 C 219.944 336.400,221.200 336.231,221.200 336.000 C 221.200 335.780,222.190 335.600,223.400 335.600 C 224.610 335.600,225.600 335.420,225.600 335.200 C 225.600 334.980,226.410 334.800,227.400 334.800 C 228.390 334.800,229.200 334.620,229.200 334.400 C 229.200 334.180,230.010 334.000,231.000 334.000 C 231.990 334.000,232.800 333.841,232.800 333.647 C 232.800 333.452,233.970 333.168,235.400 333.015 C 236.830 332.862,238.000 332.571,238.000 332.368 C 238.000 332.166,238.630 332.000,239.400 332.000 C 240.170 332.000,240.800 331.820,240.800 331.600 C 240.800 331.380,241.340 331.200,242.000 331.200 C 242.660 331.200,243.200 331.020,243.200 330.800 C 243.200 330.580,243.650 330.400,244.200 330.400 C 244.750 330.400,245.200 330.241,245.200 330.046 C 245.200 329.851,246.190 329.568,247.400 329.417 C 248.610 329.266,249.600 328.975,249.600 328.771 C 249.600 328.567,249.960 328.400,250.400 328.400 C 250.840 328.400,251.200 328.220,251.200 328.000 C 251.200 327.780,251.650 327.600,252.200 327.600 C 252.750 327.600,253.200 327.420,253.200 327.200 C 253.200 326.980,253.560 326.800,254.000 326.800 C 254.440 326.800,254.800 326.620,254.800 326.400 C 254.800 326.180,255.070 326.000,255.400 326.000 C 255.730 326.000,256.000 325.844,256.000 325.653 C 256.000 325.462,256.761 325.203,257.691 325.078 C 258.622 324.954,259.447 324.660,259.525 324.426 C 259.603 324.192,260.012 324.000,260.433 324.000 C 260.855 324.000,261.200 323.820,261.200 323.600 C 261.200 323.380,261.560 323.200,262.000 323.200 C 262.440 323.200,262.800 323.020,262.800 322.800 C 262.800 322.580,263.070 322.400,263.400 322.400 C 263.730 322.400,264.000 322.220,264.000 322.000 C 264.000 321.780,264.360 321.600,264.800 321.600 C 265.240 321.600,265.600 321.440,265.600 321.245 C 265.600 321.049,266.191 320.778,266.913 320.643 C 267.635 320.507,268.485 320.037,268.801 319.598 C 269.118 319.159,269.697 318.800,270.088 318.800 C 270.480 318.800,270.800 318.620,270.800 318.400 C 270.800 318.180,270.993 318.000,271.229 318.000 C 271.464 318.000,271.927 317.730,272.257 317.400 C 272.587 317.070,273.204 316.800,273.629 316.800 C 274.053 316.800,274.400 316.620,274.400 316.400 C 274.400 316.180,274.748 316.000,275.173 316.000 C 275.598 316.000,276.060 315.640,276.200 315.200 C 276.340 314.760,276.802 314.400,277.227 314.400 C 277.978 314.400,278.000 313.947,278.000 298.400 C 278.000 289.600,277.860 282.400,277.688 282.400 C 277.517 282.400,277.117 282.760,276.800 283.200 M339.714 287.800 C 339.717 288.900,339.795 289.303,339.887 288.695 C 339.979 288.086,339.977 287.186,339.882 286.695 C 339.787 286.203,339.711 286.700,339.714 287.800 M339.786 311.600 C 339.786 322.710,339.837 327.255,339.900 321.700 C 339.962 316.145,339.962 307.055,339.900 301.500 C 339.837 295.945,339.786 300.490,339.786 311.600 " stroke="none" fill="#1883b1" fill-rule="evenodd"></path><path id="path2" d="M382.800 2.099 C 382.910 2.209,383.630 2.611,384.400 2.993 C 385.480 3.528,385.663 3.550,385.200 3.086 C 384.870 2.756,384.150 2.354,383.600 2.193 C 383.050 2.032,382.690 1.990,382.800 2.099 M15.429 3.809 C 15.005 4.129,14.738 4.471,14.835 4.569 C 14.932 4.666,15.459 4.402,16.006 3.982 C 16.553 3.561,16.820 3.220,16.600 3.222 C 16.380 3.224,15.853 3.488,15.429 3.809 M13.533 5.107 C 13.460 5.276,12.881 5.816,12.246 6.307 C 11.611 6.798,11.251 7.195,11.446 7.189 C 12.002 7.172,14.656 4.823,14.133 4.811 C 13.877 4.805,13.607 4.938,13.533 5.107 M390.224 7.387 C 391.242 8.158,391.824 8.167,391.057 7.400 C 390.727 7.070,390.230 6.800,389.952 6.800 C 389.669 6.800,389.788 7.058,390.224 7.387 M9.660 8.242 C 8.815 9.197,9.435 9.365,10.367 8.433 C 10.844 7.956,10.987 7.606,10.700 7.615 C 10.425 7.624,9.957 7.905,9.660 8.242 M393.600 10.417 C 393.600 10.646,393.960 11.220,394.400 11.692 C 394.840 12.164,395.200 12.337,395.200 12.075 C 395.200 11.814,394.840 11.240,394.400 10.800 C 393.960 10.360,393.600 10.188,393.600 10.417 M396.800 15.200 C 396.800 15.420,396.991 15.600,397.224 15.600 C 397.457 15.600,397.536 15.780,397.400 16.000 C 397.264 16.220,397.343 16.400,397.576 16.400 C 398.067 16.400,398.087 16.293,397.757 15.433 C 397.489 14.735,396.800 14.567,396.800 15.200 M2.411 19.371 C 1.817 20.934,1.934 21.180,2.647 19.865 C 2.986 19.240,3.164 18.630,3.042 18.509 C 2.921 18.388,2.637 18.776,2.411 19.371 M0.400 25.800 C 0.400 26.130,0.580 26.400,0.800 26.400 C 1.020 26.400,1.200 26.130,1.200 25.800 C 1.200 25.470,1.020 25.200,0.800 25.200 C 0.580 25.200,0.400 25.470,0.400 25.800 M0.400 264.200 C 0.400 337.133,0.534 374.000,0.800 374.000 C 1.020 374.000,1.200 374.619,1.200 375.376 C 1.200 376.133,1.359 376.851,1.554 376.971 C 1.748 377.092,2.029 378.002,2.178 378.995 C 2.327 379.988,2.618 380.800,2.825 380.800 C 3.031 380.800,3.200 381.070,3.200 381.400 C 3.200 381.730,3.380 382.000,3.600 382.000 C 3.820 382.000,4.000 382.360,4.000 382.800 C 4.000 383.240,4.180 383.600,4.400 383.600 C 4.620 383.600,4.800 383.960,4.800 384.400 C 4.800 384.840,4.975 385.200,5.190 385.200 C 5.404 385.200,5.881 385.783,6.249 386.495 C 6.617 387.207,7.432 388.269,8.059 388.855 C 8.687 389.442,9.200 390.042,9.200 390.189 C 9.200 390.523,10.257 391.600,10.585 391.600 C 10.718 391.600,11.457 392.230,12.227 393.000 C 12.997 393.770,13.851 394.400,14.125 394.400 C 14.399 394.400,14.883 394.760,15.200 395.200 C 15.517 395.640,16.097 396.000,16.488 396.000 C 16.880 396.000,17.200 396.138,17.200 396.306 C 17.200 396.765,20.263 398.000,21.403 398.000 C 21.951 398.000,22.400 398.180,22.400 398.400 C 22.400 398.620,22.835 398.800,23.367 398.800 C 23.898 398.800,24.408 399.025,24.500 399.300 C 24.745 400.036,377.255 400.036,377.500 399.300 C 377.592 399.025,378.192 398.800,378.833 398.800 C 379.475 398.800,380.000 398.640,380.000 398.445 C 380.000 398.250,380.810 397.969,381.800 397.821 C 382.790 397.672,383.600 397.382,383.600 397.175 C 383.600 396.969,383.868 396.800,384.197 396.800 C 384.525 396.800,385.018 396.440,385.293 396.000 C 385.568 395.560,386.109 395.200,386.496 395.200 C 386.883 395.200,387.200 395.032,387.200 394.827 C 387.200 394.622,387.547 394.344,387.972 394.209 C 389.049 393.867,395.200 387.866,395.200 387.157 C 395.200 386.838,395.560 386.317,396.000 386.000 C 396.440 385.683,396.800 385.270,396.800 385.083 C 396.800 384.896,397.070 384.473,397.400 384.143 C 397.730 383.813,398.000 383.196,398.000 382.771 C 398.000 382.347,398.180 382.000,398.400 382.000 C 398.620 382.000,398.800 381.565,398.800 381.033 C 398.800 380.502,399.025 379.992,399.300 379.900 C 399.787 379.738,400.310 155.200,399.824 155.200 C 399.645 155.200,397.025 156.403,389.685 159.853 C 387.642 160.814,385.892 161.600,385.797 161.600 C 385.702 161.600,384.673 162.030,383.512 162.555 C 379.533 164.355,377.798 165.111,375.600 166.003 C 374.390 166.494,372.860 167.126,372.200 167.408 C 369.024 168.765,360.891 172.000,360.657 172.000 C 360.511 172.000,359.628 172.343,358.696 172.763 C 357.763 173.182,355.200 174.188,353.000 174.998 C 350.800 175.808,348.640 176.617,348.200 176.795 C 347.760 176.973,346.770 177.336,346.000 177.600 C 345.230 177.864,344.240 178.226,343.800 178.404 C 342.811 178.804,341.910 179.144,339.600 179.991 L 337.800 180.650 337.684 184.125 C 337.611 186.336,337.720 187.600,337.984 187.600 C 338.263 187.600,338.400 191.937,338.400 200.800 C 338.400 208.685,338.550 214.000,338.773 214.000 C 339.599 214.000,340.549 323.920,339.787 331.500 L 339.536 334.000 308.768 334.000 L 278.000 334.000 278.000 324.200 C 278.000 314.781,277.970 314.400,277.227 314.400 C 276.802 314.400,276.340 314.760,276.200 315.200 C 276.060 315.640,275.598 316.000,275.173 316.000 C 274.748 316.000,274.400 316.180,274.400 316.400 C 274.400 316.620,274.053 316.800,273.629 316.800 C 273.204 316.800,272.587 317.070,272.257 317.400 C 271.927 317.730,271.464 318.000,271.229 318.000 C 270.993 318.000,270.800 318.180,270.800 318.400 C 270.800 318.620,270.480 318.800,270.088 318.800 C 269.697 318.800,269.118 319.159,268.801 319.598 C 268.485 320.037,267.635 320.507,266.913 320.643 C 266.191 320.778,265.600 321.049,265.600 321.245 C 265.600 321.440,265.240 321.600,264.800 321.600 C 264.360 321.600,264.000 321.780,264.000 322.000 C 264.000 322.220,263.730 322.400,263.400 322.400 C 263.070 322.400,262.800 322.580,262.800 322.800 C 262.800 323.020,262.440 323.200,262.000 323.200 C 261.560 323.200,261.200 323.380,261.200 323.600 C 261.200 323.820,260.855 324.000,260.433 324.000 C 260.012 324.000,259.603 324.192,259.525 324.426 C 259.447 324.660,258.622 324.954,257.691 325.078 C 256.761 325.203,256.000 325.462,256.000 325.653 C 256.000 325.844,255.730 326.000,255.400 326.000 C 255.070 326.000,254.800 326.180,254.800 326.400 C 254.800 326.620,254.440 326.800,254.000 326.800 C 253.560 326.800,253.200 326.980,253.200 327.200 C 253.200 327.420,252.750 327.600,252.200 327.600 C 251.650 327.600,251.200 327.780,251.200 328.000 C 251.200 328.220,250.840 328.400,250.400 328.400 C 249.960 328.400,249.600 328.567,249.600 328.771 C 249.600 328.975,248.610 329.266,247.400 329.417 C 246.190 329.568,245.200 329.851,245.200 330.046 C 245.200 330.241,244.750 330.400,244.200 330.400 C 243.650 330.400,243.200 330.580,243.200 330.800 C 243.200 331.020,242.660 331.200,242.000 331.200 C 241.340 331.200,240.800 331.380,240.800 331.600 C 240.800 331.820,240.170 332.000,239.400 332.000 C 238.630 332.000,238.000 332.166,238.000 332.368 C 238.000 332.571,236.830 332.862,235.400 333.015 C 233.970 333.168,232.800 333.452,232.800 333.647 C 232.800 333.841,231.990 334.000,231.000 334.000 C 230.010 334.000,229.200 334.180,229.200 334.400 C 229.200 334.620,228.390 334.800,227.400 334.800 C 226.410 334.800,225.600 334.980,225.600 335.200 C 225.600 335.420,224.610 335.600,223.400 335.600 C 222.190 335.600,221.200 335.780,221.200 336.000 C 221.200 336.231,219.944 336.400,218.233 336.400 C 216.540 336.400,215.207 336.578,215.128 336.815 C 214.937 337.389,187.863 337.388,187.671 336.814 C 187.593 336.578,186.254 336.400,184.567 336.400 C 182.856 336.400,181.600 336.231,181.600 336.000 C 181.600 335.780,180.700 335.600,179.600 335.600 C 178.500 335.600,177.600 335.420,177.600 335.200 C 177.600 334.980,176.700 334.800,175.600 334.800 C 174.500 334.800,173.600 334.620,173.600 334.400 C 173.600 334.145,170.200 334.000,164.200 334.000 L 154.800 334.000 154.800 331.600 C 154.800 329.467,154.711 329.200,154.000 329.200 C 153.560 329.200,153.200 329.020,153.200 328.800 C 153.200 328.580,152.750 328.400,152.200 328.400 C 151.650 328.400,151.200 328.220,151.200 328.000 C 151.200 327.780,150.840 327.600,150.400 327.600 C 149.960 327.600,149.600 327.420,149.600 327.200 C 149.600 326.980,149.330 326.800,149.000 326.800 C 148.670 326.800,148.400 326.620,148.400 326.400 C 148.400 326.180,147.860 326.000,147.200 326.000 C 146.540 326.000,146.000 325.828,146.000 325.618 C 146.000 325.408,145.370 325.118,144.600 324.974 C 143.830 324.829,143.200 324.551,143.200 324.355 C 143.200 324.160,142.840 324.000,142.400 324.000 C 141.960 324.000,141.600 323.820,141.600 323.600 C 141.600 323.380,141.330 323.200,141.000 323.200 C 140.670 323.200,140.400 323.020,140.400 322.800 C 140.400 322.580,140.040 322.400,139.600 322.400 C 139.160 322.400,138.800 322.220,138.800 322.000 C 138.800 321.780,138.440 321.600,138.000 321.600 C 137.560 321.600,137.200 321.428,137.200 321.218 C 137.200 321.008,136.570 320.718,135.800 320.574 C 135.030 320.429,134.400 320.151,134.400 319.955 C 134.400 319.760,134.052 319.600,133.627 319.600 C 133.202 319.600,132.740 319.240,132.600 318.800 C 132.460 318.360,131.998 318.000,131.573 318.000 C 131.148 318.000,130.800 317.820,130.800 317.600 C 130.800 317.380,130.453 317.200,130.029 317.200 C 129.604 317.200,128.987 316.930,128.657 316.600 C 128.327 316.270,127.904 316.000,127.717 316.000 C 127.530 316.000,127.117 315.640,126.800 315.200 C 126.483 314.760,125.915 314.400,125.539 314.400 C 125.162 314.400,124.740 314.040,124.600 313.600 C 124.460 313.160,124.103 312.800,123.806 312.800 C 123.509 312.800,122.981 312.691,122.633 312.557 C 122.065 312.339,122.000 313.434,122.000 323.157 L 122.000 334.000 91.824 334.000 C 75.227 334.000,61.557 333.854,61.447 333.675 C 61.336 333.497,61.122 298.802,60.970 256.575 C 60.818 214.349,60.540 179.605,60.353 179.366 C 60.165 179.127,59.244 178.691,58.306 178.396 C 57.368 178.102,56.429 177.712,56.220 177.530 C 56.011 177.349,55.514 177.200,55.115 177.200 C 54.716 177.200,54.077 177.041,53.695 176.847 C 52.592 176.286,51.216 175.741,48.000 174.593 C 46.350 174.004,44.460 173.285,43.800 172.995 C 43.140 172.704,40.017 171.461,36.859 170.233 C 33.702 169.004,30.552 167.751,29.859 167.447 C 29.167 167.144,27.610 166.494,26.400 166.003 C 24.202 165.111,22.467 164.355,18.488 162.555 C 17.327 162.030,16.295 161.600,16.196 161.600 C 16.097 161.600,14.527 160.899,12.708 160.042 C 10.888 159.185,8.500 158.081,7.400 157.589 C 6.300 157.096,4.333 156.177,3.029 155.546 C 1.725 154.916,0.600 154.400,0.529 154.400 C 0.458 154.400,0.400 203.810,0.400 264.200 " stroke="none" fill="#0f679e" fill-rule="evenodd"></path><path id="path3" d="M61.242 184.800 C 60.982 193.989,61.258 333.383,61.537 333.680 C 61.682 333.834,61.755 311.694,61.700 284.480 C 61.546 208.646,61.409 178.875,61.242 184.800 M331.667 186.820 C 331.901 187.492,332.167 187.967,332.257 187.876 C 332.456 187.678,331.701 185.600,331.431 185.600 C 331.327 185.600,331.433 186.149,331.667 186.820 M334.884 196.000 C 334.995 196.330,335.312 197.590,335.589 198.800 C 336.173 201.357,336.912 203.333,336.561 201.400 C 336.013 198.384,335.422 196.167,335.068 195.800 C 334.816 195.538,334.752 195.608,334.884 196.000 M122.000 237.773 C 122.000 277.445,122.036 279.557,122.711 279.772 C 123.102 279.896,123.687 280.384,124.011 280.857 C 124.922 282.186,128.102 285.200,128.594 285.200 C 128.719 285.200,129.631 286.010,130.621 287.000 C 131.611 287.990,132.614 288.800,132.850 288.800 C 133.086 288.800,133.783 289.340,134.400 290.000 C 135.017 290.660,135.789 291.200,136.118 291.200 C 136.446 291.200,136.818 291.470,136.945 291.800 C 137.071 292.130,137.501 292.400,137.899 292.400 C 138.297 292.400,138.883 292.760,139.200 293.200 C 139.517 293.640,139.967 294.000,140.200 294.000 C 140.433 294.000,140.883 294.360,141.200 294.800 C 141.517 295.240,142.097 295.600,142.488 295.600 C 142.880 295.600,143.200 295.780,143.200 296.000 C 143.200 296.220,143.566 296.400,144.013 296.400 C 144.459 296.400,144.929 296.670,145.055 297.000 C 145.182 297.330,145.626 297.600,146.043 297.600 C 146.459 297.600,146.800 297.780,146.800 298.000 C 146.800 298.220,147.160 298.400,147.600 298.400 C 148.040 298.400,148.400 298.580,148.400 298.800 C 148.400 299.020,148.670 299.200,149.000 299.200 C 149.330 299.200,149.600 299.364,149.600 299.565 C 149.600 299.766,150.320 300.051,151.200 300.200 C 152.080 300.349,152.800 300.634,152.800 300.835 C 152.800 301.036,153.070 301.200,153.400 301.200 C 153.730 301.200,154.000 301.380,154.000 301.600 C 154.000 301.820,154.180 302.000,154.400 302.000 C 154.664 302.000,154.800 287.667,154.800 259.800 C 154.800 231.933,154.664 217.600,154.400 217.600 C 154.180 217.600,154.000 217.240,154.000 216.800 C 154.000 216.360,153.838 216.000,153.641 216.000 C 153.443 216.000,153.155 214.740,153.000 213.200 C 152.845 211.660,152.557 210.400,152.359 210.400 C 152.162 210.400,152.000 209.590,152.000 208.600 C 152.000 207.610,151.820 206.800,151.600 206.800 C 151.378 206.800,151.200 205.733,151.200 204.400 L 151.200 202.000 153.100 201.994 C 154.474 201.989,154.834 201.880,154.400 201.600 C 154.070 201.387,153.229 201.209,152.531 201.206 C 151.832 201.203,150.392 201.029,149.331 200.819 C 148.269 200.610,146.050 200.236,144.400 199.989 C 142.750 199.741,140.680 199.385,139.800 199.196 C 138.920 199.008,137.120 198.665,135.800 198.434 C 134.480 198.204,131.148 197.562,128.396 197.008 C 125.643 196.453,123.078 196.000,122.696 196.000 C 122.039 196.000,122.000 198.353,122.000 237.773 M259.600 199.662 C 254.585 200.487,252.449 200.814,249.647 201.183 C 245.845 201.685,245.422 202.113,248.902 201.937 L 251.604 201.800 251.342 205.600 C 251.198 207.690,250.927 209.460,250.740 209.533 C 250.553 209.607,250.400 210.282,250.400 211.033 C 250.400 211.785,250.220 212.400,250.000 212.400 C 249.780 212.400,249.600 213.030,249.600 213.800 C 249.600 214.570,249.420 215.200,249.200 215.200 C 248.980 215.200,248.800 215.740,248.800 216.400 C 248.800 217.060,248.628 217.600,248.418 217.600 C 248.208 217.600,247.918 218.230,247.774 219.000 C 247.629 219.770,247.351 220.400,247.155 220.400 C 246.960 220.400,246.800 220.760,246.800 221.200 C 246.800 221.640,246.620 222.000,246.400 222.000 C 246.180 222.000,246.000 222.270,246.000 222.600 C 246.000 222.930,245.820 223.200,245.600 223.200 C 245.380 223.200,245.200 223.560,245.200 224.000 C 245.200 224.440,245.020 224.800,244.800 224.800 C 244.580 224.800,244.400 225.160,244.400 225.600 C 244.400 226.040,244.232 226.400,244.027 226.400 C 243.822 226.400,243.526 226.805,243.370 227.300 C 243.213 227.795,242.751 228.491,242.343 228.847 C 241.934 229.203,241.600 229.788,241.600 230.147 C 241.600 230.506,241.428 230.800,241.218 230.800 C 240.869 230.800,239.760 231.845,238.500 233.364 C 238.225 233.695,238.000 234.232,238.000 234.556 C 238.000 234.881,237.640 235.260,237.200 235.400 C 236.760 235.540,236.400 235.822,236.400 236.027 C 236.400 236.232,236.214 236.400,235.987 236.400 C 235.759 236.400,234.959 236.985,234.208 237.700 C 232.406 239.417,231.688 240.000,231.377 240.000 C 231.236 240.000,230.617 240.540,230.000 241.200 C 229.383 241.860,228.591 242.400,228.240 242.400 C 227.888 242.400,227.600 242.560,227.600 242.757 C 227.600 242.953,227.150 243.226,226.600 243.364 C 226.050 243.502,225.600 243.792,225.600 244.008 C 225.600 244.223,225.240 244.400,224.800 244.400 C 224.360 244.400,224.000 244.580,224.000 244.800 C 224.000 245.020,223.730 245.200,223.400 245.200 C 223.070 245.200,222.800 245.380,222.800 245.600 C 222.800 245.820,222.260 246.000,221.600 246.000 C 220.940 246.000,220.400 246.180,220.400 246.400 C 220.400 246.620,220.040 246.800,219.600 246.800 C 219.160 246.800,218.800 246.980,218.800 247.200 C 218.800 247.420,218.395 247.603,217.900 247.606 C 217.405 247.609,216.792 247.744,216.539 247.906 C 216.198 248.123,215.988 259.448,215.739 291.062 C 215.552 314.636,215.535 333.841,215.700 333.739 C 215.865 333.636,216.000 328.691,216.000 322.748 C 216.000 310.437,215.904 310.800,219.171 310.800 C 220.287 310.800,221.200 310.620,221.200 310.400 C 221.200 310.180,222.010 310.000,223.000 310.000 C 223.990 310.000,224.800 309.846,224.800 309.657 C 224.800 309.469,226.105 309.194,227.700 309.046 C 229.295 308.899,230.660 308.603,230.733 308.389 C 230.807 308.175,231.482 308.000,232.233 308.000 C 232.985 308.000,233.600 307.820,233.600 307.600 C 233.600 307.380,234.050 307.200,234.600 307.200 C 235.150 307.200,235.600 307.020,235.600 306.800 C 235.600 306.580,236.140 306.400,236.800 306.400 C 237.460 306.400,238.000 306.220,238.000 306.000 C 238.000 305.780,238.450 305.600,239.000 305.600 C 239.550 305.600,240.000 305.431,240.000 305.225 C 240.000 305.018,240.810 304.728,241.800 304.579 C 242.790 304.431,243.600 304.150,243.600 303.955 C 243.600 303.760,243.960 303.600,244.400 303.600 C 244.840 303.600,245.200 303.420,245.200 303.200 C 245.200 302.980,245.740 302.800,246.400 302.800 C 247.060 302.800,247.600 302.620,247.600 302.400 C 247.600 302.180,247.870 302.000,248.200 302.000 C 248.530 302.000,248.800 301.820,248.800 301.600 C 248.800 301.380,249.160 301.200,249.600 301.200 C 250.040 301.200,250.400 301.028,250.400 300.818 C 250.400 300.608,251.030 300.318,251.800 300.174 C 252.570 300.029,253.200 299.751,253.200 299.555 C 253.200 299.360,253.560 299.200,254.000 299.200 C 254.440 299.200,254.800 299.020,254.800 298.800 C 254.800 298.580,255.004 298.400,255.253 298.400 C 255.502 298.400,255.997 298.064,256.353 297.654 C 256.709 297.243,257.551 296.787,258.223 296.639 C 258.895 296.491,259.699 296.017,260.011 295.585 C 260.322 295.153,260.857 294.800,261.200 294.800 C 261.543 294.800,262.083 294.440,262.400 294.000 C 262.717 293.560,263.207 293.200,263.488 293.200 C 263.770 293.200,264.000 293.023,264.000 292.808 C 264.000 292.592,264.495 292.293,265.100 292.144 C 265.705 291.994,266.491 291.541,266.847 291.136 C 267.203 290.731,267.616 290.400,267.765 290.400 C 267.914 290.400,268.470 289.995,268.999 289.500 C 270.426 288.166,271.139 287.600,271.394 287.600 C 271.519 287.600,272.431 286.790,273.421 285.800 C 274.411 284.810,275.404 284.000,275.629 284.000 C 275.853 284.000,276.478 283.558,277.018 283.018 L 278.000 282.036 278.000 255.026 C 278.000 238.031,277.842 226.937,277.575 225.107 C 277.047 221.503,275.985 216.410,275.593 215.604 C 273.787 211.895,271.440 207.359,271.243 207.200 C 271.107 207.090,270.523 206.370,269.946 205.600 C 267.676 202.572,263.552 199.134,262.328 199.250 C 262.038 199.277,260.810 199.463,259.600 199.662 M336.828 204.676 C 336.918 205.715,337.544 206.596,337.572 205.724 C 337.587 205.242,337.420 204.736,337.200 204.600 C 336.980 204.464,336.813 204.498,336.828 204.676 M338.795 216.718 L 338.990 219.400 339.117 217.042 C 339.186 215.745,339.099 214.538,338.922 214.360 C 338.745 214.182,338.688 215.243,338.795 216.718 M339.309 223.200 C 339.309 224.190,339.387 224.595,339.482 224.100 C 339.578 223.605,339.578 222.795,339.482 222.300 C 339.387 221.805,339.309 222.210,339.309 223.200 M339.789 252.400 C 339.789 267.470,339.839 273.635,339.900 266.100 C 339.961 258.565,339.961 246.235,339.900 238.700 C 339.839 231.165,339.789 237.330,339.789 252.400 M339.714 284.200 C 339.717 285.300,339.795 285.703,339.887 285.095 C 339.979 284.486,339.977 283.586,339.882 283.095 C 339.787 282.603,339.711 283.100,339.714 284.200 M278.092 310.076 C 278.041 322.988,278.135 333.636,278.300 333.738 C 278.572 333.907,278.568 316.691,278.291 295.000 C 278.232 290.380,278.142 297.164,278.092 310.076 " stroke="none" fill="#3b7eb6" fill-rule="evenodd"></path><path id="path4" d="M88.300 64.693 C 89.235 64.777,90.765 64.777,91.700 64.693 C 92.635 64.609,91.870 64.540,90.000 64.540 C 88.130 64.540,87.365 64.609,88.300 64.693 M57.693 99.200 C 57.693 99.970,57.775 100.285,57.876 99.900 C 57.976 99.515,57.976 98.885,57.876 98.500 C 57.775 98.115,57.693 98.430,57.693 99.200 M89.519 127.498 C 91.344 127.572,94.224 127.572,95.919 127.497 C 97.614 127.422,96.120 127.361,92.600 127.362 C 89.080 127.362,87.694 127.424,89.519 127.498 M263.107 147.890 C 263.826 147.979,264.906 147.977,265.507 147.886 C 266.108 147.795,265.520 147.722,264.200 147.724 C 262.880 147.726,262.388 147.801,263.107 147.890 M271.700 147.887 C 272.305 147.978,273.295 147.978,273.900 147.887 C 274.505 147.795,274.010 147.720,272.800 147.720 C 271.590 147.720,271.095 147.795,271.700 147.887 M72.800 151.893 C 100.377 152.169,121.907 152.172,121.738 151.900 C 121.636 151.735,108.198 151.642,91.876 151.693 C 75.554 151.744,66.970 151.834,72.800 151.893 M170.130 151.900 C 178.451 151.960,191.951 151.960,200.130 151.900 C 208.308 151.839,201.500 151.790,185.000 151.790 C 168.500 151.790,161.808 151.839,170.130 151.900 M154.995 219.600 C 154.995 256.670,155.042 271.835,155.100 253.300 C 155.157 234.765,155.157 204.435,155.100 185.900 C 155.042 167.365,154.995 182.530,154.995 219.600 M215.285 164.300 C 215.238 170.955,215.335 176.400,215.500 176.400 C 215.665 176.401,215.754 172.846,215.698 168.500 C 215.505 153.588,215.370 152.216,215.285 164.300 M317.400 165.600 C 318.706 166.920,319.865 168.000,319.975 168.000 C 320.085 168.000,319.106 166.920,317.800 165.600 C 316.494 164.280,315.335 163.200,315.225 163.200 C 315.115 163.200,316.094 164.280,317.400 165.600 M61.355 173.400 C 61.356 176.260,61.420 177.378,61.497 175.883 C 61.574 174.389,61.574 172.049,61.496 170.683 C 61.418 169.318,61.355 170.540,61.355 173.400 M253.505 196.283 C 254.002 196.379,254.722 196.375,255.105 196.275 C 255.487 196.175,255.080 196.096,254.200 196.101 C 253.320 196.105,253.007 196.187,253.505 196.283 M228.175 203.300 L 227.000 204.600 228.300 203.425 C 229.015 202.779,229.600 202.194,229.600 202.125 C 229.600 201.816,229.270 202.088,228.175 203.300 M221.880 209.565 C 221.102 210.425,220.261 211.550,220.011 212.065 C 219.691 212.722,219.826 212.643,220.464 211.800 C 220.964 211.140,221.946 210.015,222.646 209.300 C 223.347 208.585,223.779 208.000,223.607 208.000 C 223.434 208.000,222.657 208.704,221.880 209.565 M338.093 212.800 C 338.093 213.570,338.175 213.885,338.276 213.500 C 338.376 213.115,338.376 212.485,338.276 212.100 C 338.175 211.715,338.093 212.030,338.093 212.800 M217.467 218.267 C 217.320 218.413,217.211 218.908,217.225 219.367 C 217.249 220.133,217.282 220.123,217.634 219.242 C 218.026 218.263,217.944 217.789,217.467 218.267 M216.493 224.000 C 216.493 224.770,216.575 225.085,216.676 224.700 C 216.776 224.315,216.776 223.685,216.676 223.300 C 216.575 222.915,216.493 223.230,216.493 224.000 M339.334 228.000 C 339.334 229.650,339.405 230.325,339.491 229.500 C 339.578 228.675,339.578 227.325,339.491 226.500 C 339.405 225.675,339.334 226.350,339.334 228.000 M278.128 229.200 C 278.128 230.630,278.201 231.215,278.289 230.500 C 278.378 229.785,278.378 228.615,278.289 227.900 C 278.201 227.185,278.128 227.770,278.128 229.200 M215.459 233.853 C 215.317 235.540,215.241 258.629,215.291 285.160 L 215.383 333.400 215.591 282.200 C 215.706 254.040,215.782 230.952,215.759 230.893 C 215.737 230.834,215.602 232.166,215.459 233.853 M121.697 310.897 L 121.600 333.595 91.700 333.700 L 61.800 333.805 91.713 333.903 C 115.346 333.980,121.665 333.895,121.816 333.500 C 121.922 333.225,121.959 322.920,121.900 310.600 L 121.793 288.200 121.697 310.897 M170.130 333.900 C 178.451 333.960,191.951 333.960,200.130 333.900 C 208.308 333.839,201.500 333.790,185.000 333.790 C 168.500 333.790,161.808 333.839,170.130 333.900 M294.100 333.900 C 302.405 333.960,315.995 333.960,324.300 333.900 C 332.605 333.839,325.810 333.790,309.200 333.790 C 292.590 333.790,285.795 333.839,294.100 333.900 " stroke="none" fill="#6996c1" fill-rule="evenodd"></path><path id="path5" d="M61.369 160.400 C 61.369 164.910,61.427 166.755,61.498 164.500 C 61.570 162.245,61.570 158.555,61.498 156.300 C 61.427 154.045,61.369 155.890,61.369 160.400 M215.684 164.300 C 215.638 170.735,215.735 176.000,215.900 176.000 C 216.065 176.001,216.154 172.536,216.098 168.300 C 215.907 153.905,215.769 152.573,215.684 164.300 M245.916 196.297 C 247.299 196.375,249.459 196.374,250.716 196.295 C 251.972 196.216,250.840 196.152,248.200 196.153 C 245.560 196.153,244.532 196.218,245.916 196.297 M246.000 202.046 C 243.030 202.187,239.160 202.501,237.400 202.745 C 235.640 202.989,232.906 203.216,231.324 203.250 C 228.081 203.319,228.253 203.203,223.180 208.697 C 219.779 212.380,218.614 214.719,217.454 220.200 C 215.904 227.520,215.892 227.793,215.822 257.000 C 215.784 272.840,215.811 277.350,215.881 267.021 C 216.015 247.130,215.965 247.619,217.900 247.606 C 218.395 247.603,218.800 247.420,218.800 247.200 C 218.800 246.980,219.160 246.800,219.600 246.800 C 220.040 246.800,220.400 246.620,220.400 246.400 C 220.400 246.180,220.940 246.000,221.600 246.000 C 222.260 246.000,222.800 245.820,222.800 245.600 C 222.800 245.380,223.070 245.200,223.400 245.200 C 223.730 245.200,224.000 245.020,224.000 244.800 C 224.000 244.580,224.360 244.400,224.800 244.400 C 225.240 244.400,225.600 244.223,225.600 244.008 C 225.600 243.792,226.050 243.502,226.600 243.364 C 227.150 243.226,227.600 242.953,227.600 242.757 C 227.600 242.560,227.888 242.400,228.240 242.400 C 228.591 242.400,229.383 241.860,230.000 241.200 C 230.617 240.540,231.236 240.000,231.377 240.000 C 231.688 240.000,232.406 239.417,234.208 237.700 C 234.959 236.985,235.759 236.400,235.987 236.400 C 236.214 236.400,236.400 236.232,236.400 236.027 C 236.400 235.822,236.760 235.540,237.200 235.400 C 237.640 235.260,238.000 234.881,238.000 234.556 C 238.000 234.232,238.225 233.695,238.500 233.364 C 239.760 231.845,240.869 230.800,241.218 230.800 C 241.428 230.800,241.600 230.506,241.600 230.147 C 241.600 229.788,241.934 229.203,242.343 228.847 C 242.751 228.491,243.213 227.795,243.370 227.300 C 243.526 226.805,243.822 226.400,244.027 226.400 C 244.232 226.400,244.400 226.040,244.400 225.600 C 244.400 225.160,244.580 224.800,244.800 224.800 C 245.020 224.800,245.200 224.440,245.200 224.000 C 245.200 223.560,245.380 223.200,245.600 223.200 C 245.820 223.200,246.000 222.930,246.000 222.600 C 246.000 222.270,246.180 222.000,246.400 222.000 C 246.620 222.000,246.800 221.640,246.800 221.200 C 246.800 220.760,246.960 220.400,247.155 220.400 C 247.351 220.400,247.629 219.770,247.774 219.000 C 247.918 218.230,248.208 217.600,248.418 217.600 C 248.628 217.600,248.800 217.060,248.800 216.400 C 248.800 215.740,248.980 215.200,249.200 215.200 C 249.420 215.200,249.600 214.570,249.600 213.800 C 249.600 213.030,249.780 212.400,250.000 212.400 C 250.220 212.400,250.400 211.770,250.400 211.000 C 250.400 210.230,250.553 209.600,250.740 209.600 C 251.025 209.600,251.771 201.917,251.494 201.823 C 251.442 201.805,248.970 201.906,246.000 202.046 M151.200 204.400 C 151.200 205.733,151.378 206.800,151.600 206.800 C 151.820 206.800,152.000 207.610,152.000 208.600 C 152.000 209.590,152.162 210.400,152.359 210.400 C 152.557 210.400,152.845 211.660,153.000 213.200 C 153.155 214.740,153.443 216.000,153.641 216.000 C 153.838 216.000,154.000 216.360,154.000 216.800 C 154.000 217.240,154.180 217.600,154.400 217.600 C 154.653 217.600,154.800 214.733,154.800 209.800 L 154.800 202.000 153.000 202.000 L 151.200 202.000 151.200 204.400 M277.301 223.400 C 277.305 224.280,277.387 224.593,277.483 224.095 C 277.579 223.598,277.575 222.878,277.475 222.495 C 277.375 222.113,277.296 222.520,277.301 223.400 M278.189 259.200 C 278.189 274.490,278.239 280.745,278.300 273.100 C 278.361 265.455,278.361 252.945,278.300 245.300 C 278.239 237.655,278.189 243.910,278.189 259.200 M154.987 310.800 C 154.987 323.230,155.038 328.315,155.100 322.100 C 155.162 315.885,155.162 305.715,155.100 299.500 C 155.038 293.285,154.987 298.370,154.987 310.800 " stroke="none" fill="#4985c4" fill-rule="evenodd"></path><path id="path6" d="M61.796 256.400 C 61.796 298.970,61.843 316.385,61.900 295.100 C 61.957 273.815,61.957 238.985,61.900 217.700 C 61.843 196.415,61.796 213.830,61.796 256.400 M338.901 223.800 C 338.905 224.680,338.987 224.993,339.083 224.495 C 339.179 223.998,339.175 223.278,339.075 222.895 C 338.975 222.513,338.896 222.920,338.901 223.800 M278.594 282.200 C 278.594 310.360,278.642 321.821,278.700 307.669 C 278.758 293.517,278.758 270.477,278.700 256.469 C 278.642 242.461,278.594 254.040,278.594 282.200 M339.293 248.000 C 339.293 248.770,339.375 249.085,339.476 248.700 C 339.576 248.315,339.576 247.685,339.476 247.300 C 339.375 246.915,339.293 247.230,339.293 248.000 M339.390 304.800 C 339.390 320.750,339.439 327.275,339.500 319.300 C 339.560 311.325,339.560 298.275,339.500 290.300 C 339.439 282.325,339.390 288.850,339.390 304.800 " stroke="none" fill="#94acce" fill-rule="evenodd"></path><path id="path7" d="M88.500 64.291 C 89.325 64.378,90.675 64.378,91.500 64.291 C 92.325 64.205,91.650 64.134,90.000 64.134 C 88.350 64.134,87.675 64.205,88.500 64.291 M84.900 64.676 C 85.285 64.776,85.915 64.776,86.300 64.676 C 86.685 64.575,86.370 64.493,85.600 64.493 C 84.830 64.493,84.515 64.575,84.900 64.676 M94.105 64.687 C 94.714 64.779,95.614 64.777,96.105 64.682 C 96.597 64.587,96.100 64.511,95.000 64.514 C 93.900 64.517,93.497 64.595,94.105 64.687 M110.800 69.220 C 112.187 70.161,112.978 70.435,112.000 69.636 C 111.450 69.186,110.820 68.817,110.600 68.815 C 110.380 68.813,110.470 68.996,110.800 69.220 M66.975 73.300 L 65.800 74.600 67.100 73.425 C 68.312 72.330,68.584 72.000,68.275 72.000 C 68.206 72.000,67.621 72.585,66.975 73.300 M125.903 91.907 C 126.172 94.406,126.400 94.582,126.400 92.290 C 126.400 91.277,126.242 90.350,126.050 90.231 C 125.857 90.112,125.791 90.866,125.903 91.907 M57.328 96.400 C 57.328 97.830,57.401 98.415,57.489 97.700 C 57.578 96.985,57.578 95.815,57.489 95.100 C 57.401 94.385,57.328 94.970,57.328 96.400 M126.072 97.867 C 126.032 98.784,125.884 99.864,125.741 100.267 C 125.544 100.825,125.598 100.894,125.965 100.556 C 126.262 100.283,126.390 99.357,126.296 98.156 C 126.146 96.226,126.143 96.222,126.072 97.867 M194.600 100.000 C 194.464 100.220,192.743 100.400,190.776 100.400 C 188.659 100.400,187.200 100.563,187.200 100.800 C 187.200 101.020,186.210 101.200,185.000 101.200 C 183.790 101.200,182.800 101.380,182.800 101.600 C 182.800 101.820,182.001 102.000,181.024 102.000 C 180.047 102.000,179.149 102.159,179.029 102.353 C 178.909 102.548,177.821 102.830,176.612 102.981 C 175.402 103.132,174.309 103.423,174.183 103.628 C 174.056 103.833,173.333 104.000,172.576 104.000 C 171.819 104.000,171.200 104.180,171.200 104.400 C 171.200 104.620,170.761 104.800,170.224 104.800 C 169.687 104.800,169.136 104.980,169.000 105.200 C 168.864 105.420,168.439 105.600,168.056 105.600 C 167.181 105.600,165.207 106.499,165.203 106.900 C 165.201 107.065,164.795 107.201,164.300 107.202 C 163.805 107.203,162.514 107.653,161.432 108.202 C 160.350 108.751,159.135 109.200,158.732 109.200 C 158.329 109.200,158.000 109.338,158.000 109.506 C 158.000 109.814,155.093 111.200,154.446 111.200 C 154.255 111.200,153.871 111.473,153.594 111.807 C 153.317 112.141,152.440 112.717,151.645 113.087 C 150.850 113.456,150.110 113.858,150.000 113.979 C 149.696 114.315,148.299 115.159,147.384 115.559 C 146.935 115.756,146.327 116.205,146.035 116.558 C 145.742 116.911,145.285 117.200,145.021 117.200 C 144.756 117.200,144.117 117.650,143.600 118.200 C 143.083 118.750,142.456 119.200,142.205 119.200 C 141.955 119.200,141.232 119.740,140.600 120.400 C 139.968 121.060,139.259 121.608,139.025 121.618 C 138.791 121.628,137.790 122.437,136.800 123.415 C 135.810 124.393,134.879 125.195,134.732 125.197 C 134.311 125.202,128.326 131.222,126.995 132.978 C 126.338 133.846,125.035 135.264,124.100 136.129 C 123.165 136.994,122.400 137.894,122.400 138.129 C 122.400 138.364,121.927 139.050,121.350 139.653 C 120.312 140.736,119.590 141.826,118.859 143.416 C 118.652 143.865,118.195 144.473,117.842 144.765 C 117.489 145.058,117.200 145.546,117.200 145.849 C 117.200 146.152,117.048 146.400,116.863 146.400 C 116.678 146.400,116.185 147.075,115.767 147.900 C 115.350 148.725,114.660 149.805,114.234 150.300 L 113.461 151.200 87.779 151.200 C 63.797 151.200,62.062 151.246,61.549 151.900 C 61.062 152.521,61.072 152.543,61.644 152.097 C 62.151 151.702,68.640 151.617,92.044 151.697 L 121.800 151.800 121.905 173.800 L 122.009 195.800 127.905 196.925 C 131.147 197.544,134.610 198.203,135.600 198.389 C 136.590 198.576,138.390 198.916,139.600 199.146 C 142.800 199.753,146.359 200.326,153.700 201.417 L 154.800 201.580 154.800 177.223 C 154.800 163.826,154.909 152.581,155.043 152.233 C 155.461 151.143,215.001 151.282,215.586 152.374 C 215.843 152.855,216.000 157.417,216.000 164.428 L 216.000 175.708 216.886 174.554 C 217.374 173.919,217.870 173.310,217.988 173.200 C 218.107 173.090,218.740 172.280,219.394 171.400 C 222.400 167.357,233.466 157.408,235.984 156.484 C 236.323 156.360,236.690 156.144,236.800 156.005 C 237.276 155.403,246.415 151.211,248.600 150.593 C 249.920 150.219,251.313 149.753,251.695 149.557 C 252.077 149.360,252.921 149.200,253.571 149.200 C 254.221 149.200,254.849 149.045,254.966 148.856 C 255.608 147.816,273.958 147.426,280.000 148.324 C 281.870 148.601,284.120 148.931,285.000 149.055 C 285.880 149.180,286.771 149.444,286.980 149.641 C 287.189 149.838,287.837 150.000,288.420 150.000 C 289.003 150.000,290.002 150.165,290.640 150.367 C 292.859 151.069,294.000 151.219,294.000 150.808 C 294.000 150.583,293.381 150.400,292.624 150.400 C 291.867 150.400,291.136 150.220,291.000 150.000 C 290.864 149.780,290.048 149.600,289.186 149.600 C 287.742 149.600,287.555 149.468,286.781 147.900 C 285.200 144.696,284.731 143.948,284.166 143.732 C 283.855 143.612,283.598 143.219,283.596 142.857 C 283.594 142.496,283.054 141.775,282.396 141.255 C 281.738 140.735,281.200 140.092,281.200 139.825 C 281.200 139.558,280.750 138.917,280.200 138.400 C 279.650 137.883,279.200 137.262,279.200 137.020 C 279.200 136.778,277.850 135.239,276.200 133.600 C 274.550 131.961,273.200 130.422,273.200 130.180 C 273.200 129.650,271.507 128.000,270.963 128.000 C 270.752 128.000,269.328 126.740,267.800 125.200 C 266.272 123.660,264.855 122.400,264.652 122.400 C 264.449 122.400,263.426 121.635,262.380 120.700 C 259.682 118.291,259.293 118.000,258.764 118.000 C 258.505 118.000,258.000 117.685,257.641 117.300 C 256.904 116.509,255.807 115.775,254.539 115.224 C 254.065 115.018,253.568 114.673,253.435 114.456 C 253.089 113.897,239.493 107.200,238.703 107.200 C 238.342 107.200,237.936 107.020,237.800 106.800 C 237.664 106.580,237.239 106.400,236.856 106.400 C 235.981 106.400,234.007 105.501,234.003 105.100 C 234.001 104.935,233.381 104.800,232.624 104.800 C 231.867 104.800,231.136 104.620,231.000 104.400 C 230.864 104.180,230.324 104.000,229.800 104.000 C 229.276 104.000,228.745 103.834,228.619 103.631 C 228.494 103.429,227.221 103.137,225.790 102.984 C 224.359 102.831,223.091 102.547,222.971 102.353 C 222.851 102.159,222.054 102.000,221.200 102.000 C 220.346 102.000,219.536 101.820,219.400 101.600 C 219.264 101.380,218.274 101.200,217.200 101.200 C 216.126 101.200,215.136 101.020,215.000 100.800 C 214.864 100.580,213.334 100.400,211.600 100.400 C 209.866 100.400,208.336 100.220,208.200 100.000 C 208.051 99.760,205.337 99.600,201.400 99.600 C 197.463 99.600,194.749 99.760,194.600 100.000 M123.387 108.200 C 123.284 108.530,123.112 109.079,123.005 109.421 C 122.897 109.762,122.966 109.945,123.157 109.827 C 123.348 109.709,123.591 109.159,123.697 108.606 C 123.906 107.513,123.690 107.230,123.387 108.200 M119.100 115.779 C 117.963 117.204,117.600 118.059,118.527 117.129 C 119.155 116.498,120.554 114.400,120.346 114.400 C 120.266 114.400,119.705 115.020,119.100 115.779 M115.660 119.442 C 115.362 119.778,115.199 120.132,115.295 120.229 C 115.392 120.326,115.798 120.044,116.198 119.602 C 116.597 119.161,116.761 118.807,116.562 118.815 C 116.363 118.824,115.957 119.105,115.660 119.442 M112.214 122.473 C 111.342 123.114,110.532 123.747,110.414 123.881 C 110.041 124.305,112.960 122.624,113.540 122.081 C 114.616 121.075,113.781 121.321,112.214 122.473 M80.446 126.837 C 80.751 127.030,81.810 127.176,82.800 127.162 C 84.933 127.132,84.555 126.940,81.846 126.676 C 80.642 126.559,80.105 126.621,80.446 126.837 M102.200 126.800 L 101.000 127.105 102.300 127.153 C 103.015 127.179,103.600 127.020,103.600 126.800 C 103.600 126.580,103.555 126.421,103.500 126.447 C 103.445 126.473,102.860 126.632,102.200 126.800 M93.400 127.600 L 87.000 127.831 93.276 127.915 C 97.123 127.967,99.648 127.845,99.800 127.600 C 99.936 127.380,99.992 127.238,99.924 127.285 C 99.856 127.331,96.920 127.473,93.400 127.600 M300.833 153.736 C 301.511 154.288,305.600 156.264,305.600 156.040 C 305.600 155.689,301.779 153.600,301.136 153.600 C 300.878 153.600,300.742 153.661,300.833 153.736 M307.820 157.529 C 308.705 158.296,312.400 160.783,312.400 160.612 C 312.400 160.348,308.097 157.200,307.737 157.200 C 307.574 157.200,307.611 157.348,307.820 157.529 M312.800 161.100 C 312.800 161.269,313.160 161.632,313.600 161.907 C 314.040 162.182,314.400 162.269,314.400 162.100 C 314.400 161.931,314.040 161.568,313.600 161.293 C 313.160 161.018,312.800 160.931,312.800 161.100 M60.957 173.200 C 60.957 176.170,61.020 177.385,61.097 175.900 C 61.174 174.415,61.174 171.985,61.097 170.500 C 61.020 169.015,60.957 170.230,60.957 173.200 M322.919 171.573 C 324.057 173.098,325.057 174.276,325.142 174.192 C 325.293 174.040,322.674 170.277,321.737 169.300 C 320.498 168.009,321.045 169.059,322.919 171.573 M325.615 175.000 C 325.617 175.220,325.986 175.850,326.436 176.400 C 326.979 177.064,327.115 177.131,326.840 176.600 C 326.166 175.295,325.612 174.572,325.615 175.000 M327.215 177.800 C 327.217 178.020,327.586 178.650,328.036 179.200 C 328.579 179.864,328.715 179.931,328.440 179.400 C 327.766 178.095,327.212 177.372,327.215 177.800 M241.000 196.560 C 240.780 196.639,239.790 196.941,238.800 197.233 C 237.810 197.524,236.370 198.114,235.600 198.543 C 234.830 198.972,233.566 199.667,232.791 200.087 C 231.157 200.973,228.524 203.185,229.046 203.233 C 231.701 203.478,244.786 202.064,254.800 200.450 C 256.230 200.219,258.435 199.874,259.700 199.682 C 262.633 199.238,262.814 199.021,260.932 198.201 C 260.090 197.833,259.040 197.331,258.600 197.083 C 257.863 196.669,242.014 196.198,241.000 196.560 " stroke="none" fill="#3194bc" fill-rule="evenodd"></path><path id="path8" d="M83.200 65.200 C 81.796 65.650,83.263 65.665,85.400 65.223 L 87.000 64.892 85.600 64.886 C 84.830 64.883,83.750 65.024,83.200 65.200 M95.000 65.218 C 96.100 65.390,97.720 65.522,98.600 65.512 C 100.151 65.494,100.139 65.484,98.200 65.182 C 97.100 65.010,95.480 64.878,94.600 64.888 C 93.049 64.906,93.061 64.916,95.000 65.218 M79.800 66.000 L 79.000 66.344 79.800 66.344 C 80.240 66.344,80.960 66.189,81.400 66.000 L 82.200 65.656 81.400 65.656 C 80.960 65.656,80.240 65.811,79.800 66.000 M101.800 66.000 C 102.996 66.514,103.995 66.514,103.200 66.000 C 102.870 65.787,102.240 65.622,101.800 65.634 L 101.000 65.656 101.800 66.000 M75.346 67.773 C 73.776 68.518,72.347 69.369,72.169 69.664 C 71.914 70.088,71.967 70.102,72.427 69.731 C 72.746 69.473,74.356 68.627,76.004 67.852 C 77.652 67.077,78.820 66.437,78.600 66.431 C 78.380 66.424,76.916 67.028,75.346 67.773 M106.095 67.420 C 106.258 67.587,107.158 68.067,108.095 68.485 C 109.033 68.904,109.620 69.065,109.400 68.844 C 109.180 68.623,108.280 68.143,107.400 67.779 C 106.520 67.414,105.933 67.253,106.095 67.420 M110.544 69.724 C 110.953 69.986,112.123 70.738,113.144 71.395 C 115.114 72.663,118.713 76.075,120.535 78.400 C 121.203 79.254,121.453 79.430,121.175 78.851 C 120.084 76.579,111.533 69.124,110.132 69.224 C 109.949 69.236,110.135 69.461,110.544 69.724 M69.931 71.097 C 68.049 72.649,67.483 73.217,67.652 73.381 C 67.734 73.459,68.700 72.735,69.800 71.770 C 71.980 69.859,72.085 69.321,69.931 71.097 M64.680 76.529 C 63.249 78.275,60.394 83.156,60.407 83.833 C 60.413 84.146,61.303 82.679,63.348 78.983 C 63.597 78.534,64.400 77.409,65.134 76.483 C 65.867 75.557,66.384 74.800,66.282 74.800 C 66.180 74.800,65.459 75.578,64.680 76.529 M121.600 80.190 C 121.600 80.295,121.959 80.970,122.399 81.690 C 123.338 83.231,123.469 82.881,122.590 81.180 C 122.041 80.119,121.600 79.678,121.600 80.190 M59.611 85.371 C 59.017 86.934,59.134 87.180,59.847 85.865 C 60.186 85.240,60.364 84.630,60.242 84.509 C 60.121 84.388,59.837 84.776,59.611 85.371 M124.157 85.800 C 124.265 86.240,124.570 87.410,124.835 88.400 C 126.396 94.223,125.182 103.885,122.175 109.574 C 121.426 110.989,120.876 112.209,120.952 112.285 C 121.213 112.546,123.933 106.992,124.814 104.400 C 126.340 99.910,126.043 88.397,124.329 85.600 C 124.046 85.137,124.006 85.182,124.157 85.800 M58.618 89.126 C 58.453 90.295,58.413 91.346,58.529 91.462 C 58.814 91.747,59.331 88.187,59.100 87.525 C 59.000 87.236,58.782 87.957,58.618 89.126 M57.852 94.500 C 57.719 95.875,57.766 97.990,57.955 99.200 C 58.261 101.152,58.306 100.871,58.350 96.700 C 58.405 91.501,58.220 90.684,57.852 94.500 M58.468 102.600 C 58.474 103.040,58.624 103.850,58.800 104.400 L 59.120 105.400 59.132 104.400 C 59.138 103.850,58.989 103.040,58.800 102.600 L 58.456 101.800 58.468 102.600 M59.609 107.051 C 59.596 107.722,60.817 110.516,61.031 110.303 C 61.132 110.202,60.855 109.327,60.416 108.360 C 59.977 107.392,59.614 106.803,59.609 107.051 M61.209 111.100 C 61.214 111.265,61.585 111.850,62.033 112.400 L 62.848 113.400 62.214 112.100 C 61.611 110.865,61.189 110.445,61.209 111.100 M118.495 115.500 C 115.326 119.747,110.764 123.273,106.000 125.158 C 104.790 125.636,104.315 125.923,104.944 125.795 C 109.482 124.873,117.375 118.760,120.123 114.041 C 121.290 112.036,120.656 112.605,118.495 115.500 M63.066 114.038 C 63.577 115.015,66.402 118.194,66.385 117.772 C 66.376 117.567,65.551 116.500,64.551 115.400 C 63.551 114.300,62.883 113.687,63.066 114.038 M68.253 119.475 C 69.162 120.314,70.512 121.343,71.253 121.762 C 73.033 122.770,72.740 122.494,69.400 120.022 C 67.164 118.368,66.933 118.257,68.253 119.475 M72.800 122.636 C 72.800 122.952,79.631 126.102,79.848 125.886 C 79.954 125.779,79.537 125.505,78.920 125.275 C 78.304 125.045,76.675 124.312,75.300 123.646 C 73.925 122.979,72.800 122.525,72.800 122.636 M81.400 126.400 C 83.161 126.848,85.399 126.848,84.000 126.400 C 83.450 126.224,82.370 126.083,81.600 126.087 L 80.200 126.095 81.400 126.400 M101.200 126.400 L 100.200 126.720 101.200 126.732 C 101.750 126.738,102.560 126.589,103.000 126.400 L 103.800 126.056 103.000 126.068 C 102.560 126.074,101.750 126.224,101.200 126.400 M89.280 127.098 C 91.194 127.171,94.434 127.171,96.480 127.098 C 98.526 127.026,96.960 126.966,93.000 126.965 C 89.040 126.965,87.366 127.024,89.280 127.098 M267.507 147.890 C 268.226 147.979,269.306 147.977,269.907 147.886 C 270.508 147.795,269.920 147.722,268.600 147.724 C 267.280 147.726,266.788 147.801,267.507 147.890 M259.000 148.397 C 255.897 148.859,252.319 149.652,252.504 149.837 C 252.595 149.929,253.645 149.803,254.835 149.557 C 256.026 149.312,258.980 148.882,261.400 148.602 C 264.831 148.206,265.272 148.095,263.400 148.097 C 262.080 148.098,260.100 148.234,259.000 148.397 M274.000 148.414 C 277.786 148.840,281.116 148.814,278.000 148.383 C 276.790 148.216,274.810 148.089,273.600 148.101 L 271.400 148.122 274.000 148.414 M282.000 149.248 C 288.622 150.731,293.314 151.619,293.508 151.426 C 293.632 151.302,293.603 151.200,293.443 151.200 C 293.283 151.200,291.228 150.769,288.876 150.243 C 286.524 149.717,283.610 149.187,282.400 149.066 L 280.200 148.845 282.000 149.248 M250.000 150.400 C 249.205 150.914,250.204 150.914,251.400 150.400 L 252.200 150.056 251.400 150.034 C 250.960 150.022,250.330 150.187,250.000 150.400 M247.600 151.200 C 247.067 151.545,247.067 151.588,247.600 151.588 C 247.930 151.588,248.470 151.413,248.800 151.200 C 249.333 150.855,249.333 150.812,248.800 150.812 C 248.470 150.812,247.930 150.987,247.600 151.200 M245.600 151.884 C 236.095 155.378,225.493 163.807,217.651 174.104 C 216.690 175.367,215.745 176.400,215.551 176.400 C 215.357 176.400,215.200 170.941,215.200 164.200 L 215.200 152.000 185.100 152.097 L 155.000 152.195 184.894 152.300 L 214.788 152.405 214.894 164.669 C 215.012 178.270,215.017 178.294,217.403 175.105 C 225.433 164.367,233.349 157.922,245.200 152.468 C 246.827 151.719,247.089 151.336,245.600 151.884 M294.600 151.981 C 295.040 152.160,296.555 152.778,297.967 153.353 C 299.380 153.928,300.620 154.314,300.723 154.210 C 300.826 154.107,300.481 153.856,299.955 153.652 C 299.430 153.448,298.048 152.903,296.885 152.441 C 295.722 151.978,294.552 151.612,294.285 151.627 C 294.018 151.642,294.160 151.801,294.600 151.981 M61.783 152.500 C 61.676 152.779,61.639 158.945,61.700 166.203 L 61.811 179.400 61.906 165.900 L 62.000 152.400 91.799 152.400 L 121.598 152.400 121.701 218.400 L 121.804 284.400 121.802 218.300 L 121.800 152.200 91.888 152.097 C 68.076 152.016,61.937 152.098,61.783 152.500 M304.600 156.280 C 304.820 156.496,306.803 157.839,309.007 159.266 C 312.881 161.774,318.269 166.652,321.968 171.000 C 322.904 172.100,323.271 172.401,322.785 171.668 C 321.146 169.201,315.086 163.168,311.675 160.608 C 308.726 158.394,303.489 155.191,304.600 156.280 M323.846 173.700 C 324.007 173.975,324.803 175.190,325.613 176.400 C 326.424 177.610,327.476 179.365,327.952 180.300 C 328.427 181.235,328.906 182.000,329.015 182.000 C 329.379 182.000,327.118 177.831,325.490 175.500 C 324.065 173.459,323.058 172.357,323.846 173.700 M332.795 191.581 C 333.004 192.311,333.286 193.019,333.420 193.154 C 333.796 193.529,333.144 191.052,332.755 190.627 C 332.568 190.422,332.585 190.851,332.795 191.581 M242.800 195.600 C 242.213 195.788,244.441 195.917,248.200 195.913 C 251.941 195.908,254.101 195.778,253.400 195.600 C 251.806 195.194,244.066 195.194,242.800 195.600 M239.200 196.400 C 238.436 196.894,239.258 196.894,240.800 196.400 L 241.800 196.080 240.800 196.046 C 240.250 196.027,239.530 196.187,239.200 196.400 M256.200 196.400 C 256.640 196.589,257.360 196.744,257.800 196.744 L 258.600 196.744 257.800 196.400 C 257.360 196.211,256.640 196.056,256.200 196.056 L 255.400 196.056 256.200 196.400 M234.822 198.207 C 233.404 198.972,232.054 199.806,231.822 200.062 C 231.590 200.318,232.030 200.159,232.800 199.708 C 233.570 199.257,235.190 198.429,236.400 197.868 C 237.610 197.307,238.330 196.841,238.000 196.833 C 237.670 196.825,236.240 197.443,234.822 198.207 M258.833 196.935 C 259.367 197.367,264.394 199.514,264.222 199.236 C 263.963 198.817,259.741 196.800,259.122 196.800 C 258.872 196.800,258.742 196.861,258.833 196.935 M266.702 201.400 C 267.654 202.280,269.161 203.810,270.052 204.800 C 271.590 206.510,271.611 206.520,270.471 205.000 C 269.284 203.417,267.362 201.526,265.786 200.388 C 265.339 200.064,265.751 200.520,266.702 201.400 M335.444 200.600 C 335.773 202.071,336.002 202.390,335.994 201.367 C 335.991 200.945,335.805 200.330,335.582 200.000 C 335.285 199.562,335.248 199.724,335.444 200.600 M229.588 201.519 C 225.837 204.429,220.307 210.634,218.993 213.406 C 217.445 216.671,216.846 218.666,217.542 218.236 C 217.794 218.080,218.000 217.577,218.000 217.118 C 218.000 215.542,220.705 210.619,222.490 208.946 C 223.452 208.045,224.687 206.788,225.234 206.153 C 226.544 204.637,229.642 201.840,230.619 201.293 C 231.045 201.055,231.299 200.766,231.184 200.651 C 231.070 200.536,230.351 200.927,229.588 201.519 M336.380 204.910 C 336.575 206.558,336.583 206.567,336.719 205.249 C 336.796 204.506,336.706 203.746,336.520 203.560 C 336.333 203.373,336.271 203.981,336.380 204.910 M273.482 210.189 C 274.073 211.393,274.623 212.311,274.705 212.229 C 274.884 212.049,272.867 208.000,272.598 208.000 C 272.494 208.000,272.892 208.985,273.482 210.189 M337.309 209.600 C 337.309 210.590,337.387 210.995,337.482 210.500 C 337.578 210.005,337.578 209.195,337.482 208.700 C 337.387 208.205,337.309 208.610,337.309 209.600 M338.093 216.400 C 338.093 217.170,338.175 217.485,338.276 217.100 C 338.376 216.715,338.376 216.085,338.276 215.700 C 338.175 215.315,338.093 215.630,338.093 216.400 M216.676 220.010 C 216.530 220.555,216.427 221.450,216.446 222.000 C 216.471 222.718,216.584 222.557,216.849 221.427 C 217.255 219.695,217.100 218.425,216.676 220.010 M277.888 224.200 C 278.011 225.520,278.176 226.675,278.256 226.767 C 278.535 227.089,278.316 223.788,277.993 222.800 C 277.789 222.179,277.749 222.709,277.888 224.200 M215.831 224.863 C 214.937 231.649,214.810 239.751,214.894 284.800 L 214.985 333.800 215.233 282.800 C 215.391 250.305,215.640 230.281,215.921 227.614 C 216.351 223.516,216.283 221.431,215.831 224.863 M339.128 235.800 C 339.228 241.740,339.375 246.675,339.455 246.767 C 339.708 247.057,339.527 232.352,339.231 228.600 C 339.075 226.620,339.029 229.860,339.128 235.800 M278.702 273.639 C 278.758 298.368,278.852 322.020,278.911 326.200 C 278.970 330.380,279.049 310.850,279.086 282.800 C 279.123 254.750,279.029 231.098,278.877 230.239 C 278.725 229.381,278.646 248.911,278.702 273.639 M339.380 262.600 C 339.380 270.080,339.434 273.083,339.499 269.274 C 339.565 265.465,339.565 259.345,339.499 255.674 C 339.433 252.003,339.379 255.120,339.380 262.600 M121.693 287.200 C 121.693 287.970,121.775 288.285,121.876 287.900 C 121.976 287.515,121.976 286.885,121.876 286.500 C 121.775 286.115,121.693 286.430,121.693 287.200 " stroke="none" fill="#8cb4d4" fill-rule="evenodd"></path></g></svg>